<svg xmlns="http://www.w3.org/2000/svg" xmlns:xlink="http://www.w3.org/1999/xlink" id="Layer_1" x="0px" y="0px" viewBox="0 0 300 80" style="enable-background:new 0 0 300 80;" xml:space="preserve">
<style type="text/css">
	.st0{fill:#959595;}
</style>
<polygon class="st0" points="28.04,14.18 19.69,30.91 1,33.6 14.52,46.61 11.33,65 28.04,56.32 44.76,65 41.56,46.61 55.09,33.6   36.4,30.91 "></polygon>
<polygon class="st0" points="89.84,14.18 81.49,30.91 62.8,33.6 76.32,46.61 73.13,65 89.84,56.32 106.56,65 103.37,46.61   116.88,33.6 98.2,30.91 "></polygon>
<polygon class="st0" points="150.95,14.18 142.59,30.91 123.9,33.6 137.42,46.61 134.23,65 150.95,56.32 167.66,65 164.47,46.61   177.99,33.6 159.3,30.91 "></polygon>
<polygon class="st0" points="212.49,14.18 204.13,30.91 185.45,33.6 198.97,46.61 195.78,65 212.49,56.32 229.21,65 226.01,46.61   239.53,33.6 220.85,30.91 "></polygon>
<polygon class="st0" points="272.96,14.18 264.6,30.91 245.92,33.6 259.44,46.61 256.25,65 272.96,56.32 289.67,65 286.48,46.61   300,33.6 281.32,30.91 "></polygon>
</svg>