<svg xmlns="http://www.w3.org/2000/svg" xmlns:xlink="http://www.w3.org/1999/xlink" id="Layer_1" x="0px" y="0px" viewBox="0 0 300 300" style="enable-background:new 0 0 300 300;" xml:space="preserve">
<style type="text/css">
	.st0{fill:none;stroke:#929292;stroke-width:10;stroke-miterlimit:10;}
	.st1{fill:#959595;stroke:#929292;stroke-width:4;stroke-miterlimit:10;}
</style>
<g>
	<g>
		<path class="st0" d="M221.7,124.9c-0.1-4.1-7.9,2.6-12.1,1.9c-1.9-0.3-3.8-0.9-4.9-2.7c-0.8-0.9-1.5-1.9-2.3-2.8    c-4.3-5.2-11.7-4.2-14.2,2.1c-1.9,4.8-3.5,9.7-5.2,14.6c0.4,0.7,0,1.4-0.2,2c-0.2,0.4-0.6,0.7-0.8,1.1c-0.2,0.3-0.4,0.6-0.7,0.7    c-2.4,0.6-1.8,2.4-1.6,4c0.1,0.4,0.1,0.7,0,1.1c-0.3,0.8-0.7,1.6-1.1,2.4c-0.8,1.3-4.4-0.3-5.6,0.6c-1.2,0.2,0.2,2.4-1,2.7    s-1.9-0.6-2.3-1.7c-0.4-1.3-1.3-1.9-2.6-1.5c-1.2,0.4-1.5,1.5-1.3,2.6c0.2,1.2,0,2.4-0.1,3.7c0,0.4,0,0.8,0,1.2    c0,0.8,0,1.7-0.4,2.4c-0.7,0.8-1.7,1.1-2.7,1.2c-0.3,0-0.6,0.1-0.9,0c-0.9,0-1.7,0-2.5-0.5c-0.5-0.5-0.3-1-0.1-1.6    c0.6-1.6,2.1-1.4,3.3-1.9c1.1-0.4,1.4-1.2,1.1-2.3c-0.3-1.1-1-1.5-2.1-1.6c-2.8-0.2-5.3,1.2-6.2,3.9c-0.5,1.6-1.4,2.3-3,2.3    c-0.4,0-0.8,0-1.1-0.1c-3.3-1.8-5.1-5-6.9-8.1c-0.5-1.1-1.1-2.1-1.6-3.2c-1.9-4.2-2.4-8.7-2.8-13.2c0-2.1,0-4.2,0-6.4    c0-0.7,0-1.4,0.2-2.1c0.4-1.1,0.4-2.2,0.6-3.4c0.8-4.3-0.9-7.2-4.9-9.1c-2.9-1.3-5.5-3.1-7.6-5.6c-0.7-1.1-1.7-2-2.4-3.1    c-2.5-5.1-2.5-10,1.3-14.5c0.2-0.2,0.3-0.4,0.5-0.6c1.6-1.4,3.4-2.4,5.1-3.6c3.6-1.7,7.3-3.1,11.2-3.6c5.1-0.6,9.8,0.4,14,3.5    c1.6,1.1,3.1,2.3,4.7,3.3c3.1,2.2,6.2,4.3,10.2,4.2c1.7,0,3.4,0,5.1,0c1.9,0.1,3.7-0.2,5.5-0.8c0.9-0.4,1.8-0.9,2.4-1.7    c1.8-1.8,2-4.1,1.8-6.4c-0.1-1.2-0.6-2.2-1.3-3.2c-0.4-0.5-0.8-0.9-1.2-1.3c-2.4-3.4-6-5.4-9.6-7.2c-2.2-1.2-4.6-2.3-7-3.1    c-3-1.4-6.3-2.1-8.8-4.4c-0.8-0.7-1.6-1.4-2.1-2.3c-1-3.2-0.6-4.4,2-5.8c1.5-0.7,3.1-1,4.8-1.1c5.5,0,9.8-2.6,13.2-6.8     M104.1,74.7L104.1,74.7c0.1,1,0.6,1.7,1.6,2.1c2,2.8,2.6,6,2.6,9.4c-9,6.1-3.3,9.8,2,11c0.6,1.2,1.5,2.2,2,3.4    c0.3,0.6,0.5,1.1,0.7,1.7c0.3,0.8,0.7,1.6,1,2.4c0.2,0.8,0.4,1.5,0.6,2.3c1.8,8.7,0.1,16.6-5.1,23.7c-1.4,2.4-20.5,4.1-13,26.9     M112.8,168.1L112.8,168.1c-1.3-1-2.9-1.6-3.8-3.2c-0.2-0.2-0.3-0.3-0.5-0.5c-0.1-1.9,1.6-2.6,2.7-3.6c0.5-0.3,1-0.7,1.5-1.1    c0.8-0.4,1.6-0.9,2.4-1.3c2.3-0.6,4.5-1.3,6.9-0.9c0.9,0.3,1.9,0.3,2.8,0.5c3.2,0.5,6.1,2.2,9.1,3.3c4.5,2.2,7.3,8,12.2,9    c7.2,1.8,14,1.2,23.8,1.3c4,0,8.1-2,11.6,0c0.8,1.2,8.8,4.3,6.8,6.6"></path>
	</g>
</g>
<g>
	<path class="st1" d="M172.8,262.6c0.1-9.4-0.1-18.8,0.5-28.2c0.3-3.7,1.4-7.1,3.4-10.2c5.2-7.8,10.5-15.6,15.8-23.4   c2.1-3.1,4.6-5.8,8-7.1c16.1-6.3,27.8-18.4,39.6-30.3c3.4-3.4,6.6-7,12-6.8c1.6,0.1,1.5-1.4,1.7-2.5c1.9-10.4,3.7-20.7,5.6-31.1   c1.4-7.9,6.8-11.9,13.8-10.3c4.5,1.1,8.1,5.1,8,9.8c-0.4,17.3-0.9,34.5-1.4,51.7c0,1.8-0.8,3.5-1.6,5.1   c-7.2,15.4-14.4,30.7-21.6,46.1c-1.4,2.9-3.1,5.5-5.4,7.8c-8.8,8.9-17.1,18.2-26.3,26.7c-6.7,6.2-7.9,13.2-6.2,21.6   c0.7,3.6,0.9,7.4,1.2,11.1c0.2,1.8-0.8,2.8-2.4,3.1c-1.4,0.2-2.8-0.5-2.9-1.8c-0.9-8.6-3.4-17.2-1.7-26c0.7-3.9,3.1-7,5.8-9.8   c9.4-9.6,18.7-19.2,28-28.8c1.9-2,3.5-4.1,4.6-6.6c7.1-15.3,14.3-30.6,21.5-45.8c0.9-2,1.3-4.1,1.4-6.3c0.4-15.4,0.9-30.9,1.4-46.3   c0.1-3.9-1.5-6.1-4.6-6.4c-3-0.2-4.9,1.4-5.6,5.1c-2,10.8-4,21.6-6,32.4c-0.4,2-0.1,3.5,1.4,5.2c4.1,4.5,3.9,10.7-0.3,15.8   c-10,12.2-20.1,24.3-30,36.6c-4,5-7.5,10.5-11.2,15.8c-1.2,1.8-2.4,4.1-5,2.4c-2.6-1.7-1.1-3.7,0.1-5.5   c11.3-17.7,25.6-32.9,38.6-49.2c1.1-1.4,2.4-2.8,3.4-4.2c2.2-2.9,1.8-6.4-0.7-8.6c-2.5-2.1-5.6-2-8.2,0.6   c-5.5,5.2-11.1,10.4-16.3,15.9c-5.6,5.9-11.9,10.9-19.4,14c-8.7,3.5-15.1,9.3-19.6,17.4c-2.9,5.1-6.5,9.8-9.8,14.7   c-2.3,3.3-3.4,6.8-3.4,10.8c0,17-0.2,34.1-0.2,51.1c0,1,0,2,0,3.1c0,2.2-0.3,4.5-3,4.4c-2.7,0-2.9-2.3-2.9-4.5   C172.8,281.7,172.8,272.1,172.8,262.6z"></path>
	<path class="st1" d="M129.2,261.7c0,10.7,0,20,0,29.3c0,2.3-0.1,4.7-3.1,4.7c-2.7-0.1-2.8-2.5-2.8-4.6c-0.1-17.6-0.2-35.2-0.2-52.8   c0-4.9-1.2-9.1-4.1-13c-4.2-5.9-8.3-11.9-12.2-18.1c-2.9-4.6-6.3-8.3-11.4-10.2c-14.4-5.4-24.4-16.4-35-26.9   c-1.9-1.8-3.7-3.7-5.6-5.5c-3-2.8-6.3-3.1-8.8-0.8c-2.6,2.4-2.7,5.8,0,9.1c10.1,12.4,20.4,24.6,30.4,37.1c4.3,5.4,8,11.3,11.9,17   c1,1.5,1.2,3-0.5,4.2s-3.3,0.7-4.3-1C71.1,210.7,55.1,194,41,175.9c-3.8-4.9-3.7-11,0.5-15.5c1.2-1.4,1.5-2.5,1.2-4.2   c-2.1-11.2-4.1-22.5-6.2-33.7c-0.5-3-2.4-4.6-5.5-4.4c-2.7,0.2-4.6,2.2-4.6,5.3c0.4,16.3,1,32.7,1.5,49c0.1,1.7,0.7,3.3,1.4,4.9   c7.3,15.6,14.7,31.1,21.9,46.7c0.9,1.9,2.1,3.4,3.6,4.9c9.3,9.6,18.5,19.3,28.1,28.7c5.3,5.3,7.7,11.3,6.8,18.7   c-0.6,5.4-1.3,10.8-1.9,16.2c-0.2,2-1.2,3.3-3.2,3.1c-2.1-0.2-2.7-1.8-2.5-3.8c0.6-5.3,1-10.6,1.8-15.9c0.7-5.1-0.5-9.4-4.1-13.1   c-8.8-9-17.4-18.2-26.4-27c-4-4-7.1-8.4-9.4-13.5c-6.6-14.5-13.5-28.9-20.2-43.4c-0.9-1.9-1.5-3.8-1.6-5.9c-0.4-16.3-1-32.7-1.4-49   c-0.2-6.8,3.6-11.3,9.9-11.9c5.6-0.6,10.3,3.1,11.6,9.6c2.1,10.7,3.9,21.4,5.8,32.1c0.3,1.7,0.6,2.6,2.7,2.6   c3.1,0.1,5.8,1.5,8.1,3.8c3.4,3.5,7.2,6.6,10.4,10.3c8.7,9.7,19,17.1,30.9,22.3c4.3,1.9,7.5,5,10.1,8.9c4.8,7.3,9.7,14.5,14.6,21.7   c2.4,3.6,3.7,7.4,4,11.7C129.3,244.5,129.1,253.8,129.2,261.7z"></path>
</g>
<circle class="st0" cx="153.6" cy="119.8" r="71.6"></circle>
</svg>