<svg xmlns="http://www.w3.org/2000/svg" xmlns:xlink="http://www.w3.org/1999/xlink" id="Layer_1" x="0px" y="0px" viewBox="0 0 300 300" style="enable-background:new 0 0 300 300;" xml:space="preserve">
<style type="text/css">
	.st0{fill:#959595;}
</style>
<g>
	<path class="st0" d="M47.7,294.9c-0.5-0.5-1-1-1.6-1.6c-1-1.3-2.1-2.4-3.3-3.3c-0.5-0.5-1-1-1.6-1.6c-1-1.2-2.1-2.4-3.3-3.3   c-0.9-0.1-1.4-0.7-1.6-1.6c-1-1.3-2.1-2.4-3.3-3.3c-0.9-0.1-1.4-0.7-1.6-1.6c-2.3-2.7-2.3-2.7,0.2-5.3   c14.3-14.3,28.6-28.6,42.8-42.9c0.4-0.4,2.5-0.9,0.7-2.2c-0.9-0.1-1.4-0.7-1.6-1.6c-1-1.3-2.1-2.4-3.3-3.3   c-0.9-0.1-1.4-0.7-1.6-1.6c-1-1.3-2.1-2.4-3.3-3.3c-0.9-0.1-1.4-0.7-1.6-1.6c-1-1.3-2.1-2.4-3.3-3.3c-0.9-0.1-1.4-0.7-1.6-1.6   c-1-1.3-2.1-2.4-3.3-3.3c-0.9-0.1-1.4-0.7-1.6-1.6c-1-1.3-2.1-2.4-3.3-3.3c-0.9-0.1-1.4-0.7-1.6-1.6c-1-1.3-2.1-2.4-3.3-3.3   c-0.9-0.1-1.4-0.7-1.6-1.6c-1-1.3-2.1-2.4-3.3-3.3c-0.4-0.1-0.8-0.3-0.6-0.8c0.3-0.7,1-0.7,1.6-0.7c2.3-0.1,4.7-0.1,7-0.1   c0.9,0.1,1.8-0.1,2.6,0c2.4,0,4.8,0,7.1,0c0.9,0.1,1.8-0.1,2.7,0c2.4,0,4.8,0,7.1,0c0.9,0.1,1.8-0.1,2.7,0c2.4,0,4.8,0,7.1,0   c0.9,0.1,1.8-0.1,2.7,0c2.4,0,4.8,0,7.1,0c0.9,0.1,1.8-0.1,2.7,0c2.4,0,4.8,0,7.1,0c0.9,0.1,1.8-0.1,2.7,0c2.4,0,4.8,0,7.1,0   c0.9,0.1,1.8-0.1,2.7,0c2.4,0,4.8,0,7.1,0c0.9,0.1,1.8-0.1,2.7,0c2.4,0,4.8,0,7.1,0c0.9,0.1,1.8-0.1,2.7,0c0.6,0,1.3,0,1.9,0   c2.1,0,3.2,0.8,3.1,3c0.1,0.9-0.1,1.8,0,2.7c0,2.4,0,4.8,0,7.1c0.1,0.9-0.1,1.8,0,2.7c0,2.4,0,4.8,0,7.1c0.1,0.9-0.1,1.8,0,2.7   c0,2.4,0,4.8,0,7.1c0.1,0.9-0.1,1.8,0,2.7c0,2.4,0,4.8,0,7.1c0.1,0.9-0.1,1.8,0,2.7c0,2.4,0,4.8,0,7.1c0.1,0.9-0.1,1.8,0,2.7   c0,2.4,0,4.8,0,7.1c0.1,0.9-0.1,1.8,0,2.7c0,2.4,0,4.8,0,7.1c0.1,0.9-0.1,1.8,0,2.7c0,2.4,0,4.8,0,7.1c0.1,0.9-0.1,1.8,0,2.7   c0,2.4,0,4.8,0,7.1c0.1,0.9-0.2,1.8-0.6,2.6c-0.1,0.3-0.3,0.6-0.4,0.9c-0.4-0.7-0.9-1.2-1.5-1.6c-1-1.3-2.1-2.4-3.3-3.3   c-0.5-0.5-1-1-1.6-1.6c-1-1.3-2.1-2.4-3.3-3.3c-0.5-0.5-1-1-1.6-1.6c-1-1.3-2.1-2.4-3.3-3.3c-0.5-0.5-1-1-1.6-1.6   c-1-1.3-2.1-2.4-3.3-3.3c-0.5-0.5-1-1-1.6-1.6c-1-1.3-2.1-2.4-3.3-3.3c-0.5-0.5-1-1-1.6-1.6c-1-1.3-2.1-2.4-3.3-3.3   c-0.5-0.5-1-1-1.6-1.6c-1-1.3-2.1-2.4-3.3-3.3c-0.9-1.8-1.7-1.2-2.8-0.1c-14.5,14.6-29.1,29.1-43.7,43.7c-0.7,0.7-1.1,1.6-2.3,1.7   C49.9,297,48.8,296,47.7,294.9z"></path>
	<path class="st0" d="M266.2,73.3c0.4,0.7,0.9,1.2,1.6,1.6c1.1,1.1,2.1,2.2,3.2,3.3c-0.1,1.1-1.1,1.6-1.7,2.3   c-14.5,14.6-29.1,29.1-43.7,43.7c-1.1,1.1-1.8,1.9,0.1,2.8c1,1.3,2.1,2.4,3.3,3.3c0.4,0.7,0.9,1.2,1.6,1.6c1,1.3,2.1,2.4,3.3,3.3   c0.4,0.7,0.9,1.2,1.6,1.6c1,1.3,2.1,2.4,3.3,3.3c0.4,0.7,0.9,1.2,1.6,1.6c1,1.3,2.1,2.4,3.3,3.3c0.4,0.7,0.9,1.2,1.6,1.6   c1,1.3,2.1,2.4,3.3,3.3c0.4,0.7,0.9,1.2,1.6,1.6c1,1.3,2.1,2.4,3.3,3.3c0.4,0.7,0.9,1.2,1.6,1.6c1,1.3,2.1,2.4,3.3,3.3   c0.4,0.7,0.9,1.2,1.5,1.5c-0.3,0.1-0.6,0.3-0.9,0.4c-0.8,0.4-1.7,0.7-2.6,0.6c-2.4,0-4.7,0-7.1,0c-0.9-0.1-1.8,0.1-2.7,0   c-2.4,0-4.8,0-7.1,0c-0.9-0.1-1.8,0.1-2.7,0c-2.4,0-4.8,0-7.1,0c-0.9-0.1-1.8,0.1-2.7,0c-2.4,0-4.8,0-7.1,0c-0.9-0.1-1.8,0.1-2.7,0   c-2.4,0-4.8,0-7.1,0c-0.9-0.1-1.8,0.1-2.7,0c-2.4,0-4.8,0-7.1,0c-0.9-0.1-1.8,0.1-2.7,0c-2.4,0-4.8,0-7.1,0c-0.9-0.1-1.8,0.1-2.7,0   c-2.4,0-4.8,0-7.1,0c-0.9-0.1-1.8,0.1-2.7,0c-2.4,0-4.8,0-7.1,0c-0.9-0.1-1.8,0.1-2.7,0c-3-0.4-3.1-0.6-3-4.9   c-0.1-0.9,0.1-1.8,0-2.7c0-2.4,0-4.8,0-7.1c-0.1-0.9,0.1-1.8,0-2.7c0-2.4,0-4.8,0-7.1c-0.1-0.9,0.1-1.8,0-2.7c0-2.4,0-4.8,0-7.1   c-0.1-0.9,0.1-1.8,0-2.7c0-2.4,0-4.8,0-7.1c-0.1-0.9,0.1-1.8,0-2.7c0-2.4,0-4.8,0-7.1c-0.1-0.9,0.1-1.8,0-2.7c0-2.4,0-4.8,0-7.1   c-0.1-0.9,0.1-1.8,0-2.7c0-2.4,0-4.8,0-7.1c-0.1-0.9,0.1-1.8,0-2.7c0-2.4,0-4.8,0-7.1c-0.1-0.9,0.1-1.8,0-2.7c0-2.3-0.1-4.7,0.1-7   c0.4-1.9,0.6-2,1.6-1.1c1,1.3,2.1,2.4,3.4,3.4c0.9,0.1,1.4,0.7,1.5,1.5c1,1.3,2.1,2.4,3.4,3.4c0.9,0.1,1.4,0.7,1.5,1.6   c1,1.3,2.1,2.4,3.4,3.4c0.9,0.1,1.4,0.7,1.5,1.5c1,1.3,2.1,2.4,3.4,3.4c0.9,0.1,1.4,0.7,1.5,1.5c1,1.3,2.1,2.4,3.4,3.4   c0.9,0.1,1.4,0.7,1.5,1.5c1,1.3,2.1,2.4,3.4,3.4c0.9,0.1,1.4,0.7,1.5,1.5c1,1.3,2.1,2.4,3.4,3.4c0.9,0.1,1.4,0.7,1.5,1.5   c0.3,0.4,0.5,1.2,1.2,0.4c0.4-0.4,0.8-0.8,1.2-1.2c14.2-14.2,28.5-28.5,42.7-42.7c2.6-2.6,2.6-2.6,5.3-0.2c0.9,0.1,1.4,0.7,1.5,1.5   c1,1.3,2.1,2.4,3.4,3.4c0.9,0.1,1.4,0.7,1.5,1.5c1,1.3,2.1,2.4,3.4,3.4c0.4,0.7,0.9,1.2,1.6,1.6C263.8,71.2,264.9,72.3,266.2,73.3z   "></path>
	<path class="st0" d="M51.9,56.6c0.7,0.9,1.5,1.7,2.4,2.4c1,0.4,1.7,1,2,2c0.8,1.1,1.8,2.1,2.9,2.9c1,0.4,1.7,1,2,2   c0.8,1.1,1.8,2.1,2.9,2.9c1,0.4,1.7,1,2,2c0.8,1.1,1.8,2.1,2.9,2.9c1,0.4,1.7,1,2,2c0.8,1.1,1.8,2.1,2.9,2.9c1,0.3,1.7,1,2,2   c0.8,1.1,1.8,2.1,2.9,2.9c1,0.4,1.7,1,2,2c0.8,1.1,1.8,2.1,2.9,2.9c1,0.4,1.7,1,2,2c0.8,1.1,1.8,2.1,2.9,2.9c1,0.4,1.7,1,2,2   c0.8,1.1,1.8,2.1,2.9,2.9c1,0.4,1.7,1,2,2c2.7,3.1,2.7,3.1,5.4,0.4C111.5,90.1,122,79.6,132.6,69c0.5-0.5,0.7-1.5,1.8-1.2   c0.8,0.8,0.4,1.6,0,2.5c0,2.5,0,4.9,0,7.4c0.7,0.8,0.3,1.6,0,2.5c0,2.5,0,4.9,0,7.4c0.7,0.8,0.3,1.6,0,2.5c0,2.5,0,4.9,0,7.4   c0.7,0.7,0.5,1.7,0.6,2.6c0,2.4,0,4.7,0,7.1c0.1,0.9-0.1,1.8,0,2.7c0,2.4,0,4.8,0,7.1c0.1,0.9-0.1,1.8,0,2.7c0,2.4,0,4.8,0,7.1   c0.1,0.9-0.1,1.8,0,2.7c0,2.4,0,4.8,0,7.1c0.1,0.9-0.1,1.8,0,2.7c0,2.4,0,4.8,0,7.1c0.1,0.9-0.1,1.8,0,2.7c0,2.4,0,4.8,0,7.1   c0.1,0.9-0.1,1.8,0,2.7c-0.2,3.2-0.4,3.3-3.5,3.6c-0.9-0.1-1.8,0.1-2.7,0c-2.4,0-4.8,0-7.1,0c-0.9-0.1-1.8,0.1-2.7,0   c-2.4,0-4.8,0-7.1,0c-0.9-0.1-1.8,0.1-2.7,0c-2.4,0-4.8,0-7.1,0c-0.9-0.1-1.8,0.1-2.7,0c-2.4,0-4.8,0-7.1,0c-0.9-0.1-1.8,0.1-2.7,0   c-2.4,0-4.8,0-7.1,0c-0.9-0.1-1.8,0.1-2.7,0c-2.4,0-4.8,0-7.1,0c-0.9-0.1-1.9,0.1-2.6-0.7c-2.5,0-4.9,0-7.4,0   c-0.8,0.3-1.6,0.7-2.5,0c-2.5,0-4.9,0-7.4,0c-0.8,0.3-1.6,0.7-2.5,0c-2.5,0-4.9,0-7.4,0c-0.8,0.3-1.6,0.7-2.5,0   c-0.3-1.1,0.7-1.3,1.2-1.8c10.5-10.6,21.1-21.1,31.6-31.7c2.7-2.7,2.7-2.7-0.4-5.4c-1-0.3-1.7-1-2-2c-0.8-1.1-1.8-2.1-2.9-2.9   c-1-0.3-1.7-1-2-2c-0.8-1.1-1.8-2.1-2.9-2.9c-1-0.3-1.7-1-2-2c-0.8-1.1-1.8-2.1-2.9-2.9c-1-0.3-1.7-1-2-2c-0.8-1.1-1.8-2.1-2.9-2.9   c-1-0.3-1.7-1-2-2c-0.8-1.1-1.8-2.1-2.9-2.9c-1-0.3-1.7-1-2-2c-0.8-1.1-1.8-2.1-2.9-2.9c-1-0.3-1.7-1-2-2c-0.8-1.1-1.8-2.1-2.9-2.9   c-1-0.3-1.7-1-2-2c-0.8-1.1-1.8-2.1-2.9-2.9c-1-0.3-1.7-1-2-2c-0.7-0.9-1.5-1.7-2.4-2.4c-0.9-1.2-0.1-2,0.7-2.7   c6.3-6.4,12.7-12.7,19.1-19.1C49.9,56.6,50.8,55.8,51.9,56.6z"></path>
	<path class="st0" d="M244.8,294.5c-0.5-0.8-1.2-1.5-2-2c-0.8-1.1-1.8-2.1-2.9-2.9c-0.5-0.8-1.2-1.5-2-2c-0.8-1.1-1.8-2.1-2.9-2.9   c-0.5-0.8-1.2-1.5-2-2c-0.8-1.1-1.8-2.1-2.9-2.9c-0.5-0.8-1.2-1.5-2-2c-0.8-1.1-1.8-2.1-2.9-2.9c-0.5-0.8-1.2-1.5-2-2   c-0.8-1.1-1.8-2.1-2.9-2.9c-0.5-0.8-1.2-1.5-2-2c-0.8-1.1-1.8-2.1-2.9-2.9c-0.5-0.8-1.2-1.5-2-2c-0.8-1.1-1.8-2.1-2.9-2.9   c-0.5-0.8-1.2-1.5-2-2c-0.8-1.1-1.8-2.1-2.9-2.9c-0.5-0.8-1.2-1.5-2-2c-1.1-2.1-2.2-1.7-3.7-0.2c-10.6,10.8-21.4,21.4-32.1,32.2   c-0.6,0.6-1.1,1.2-1.9,2.1c-0.1-1.2-0.2-1.9-0.2-2.6c0-0.8,0-1.6,0-2.5c0-2.5,0-4.9,0-7.4c0-0.8,0-1.6,0-2.5c0-2.5,0-4.9,0-7.4   c0-0.8,0-1.6,0-2.5c0-2.4,0-4.9,0-7.3c-0.7-0.7-0.5-1.7-0.6-2.6c0-2.4,0-4.7,0-7.1c-0.1-0.9,0.1-1.8,0-2.7c0-2.4,0-4.8,0-7.1   c-0.1-0.9,0.1-1.8,0-2.7c0-2.4,0-4.8,0-7.1c-0.1-0.9,0.1-1.8,0-2.7c0-2.4,0-4.8,0-7.1c-0.1-0.9,0.1-1.8,0-2.7c0-2.4,0-4.8,0-7.1   c-0.1-0.9,0.1-1.8,0-2.7c0-2.4,0-4.7,0-7.1c-0.1-0.9,0-1.8,0.1-2.7c0.2-0.8,0.7-1.3,1.5-1.5c0.9-0.1,1.8-0.2,2.7-0.2   c2.4,0,4.7,0,7.1,0c0.9,0.1,1.8-0.1,2.7,0c2.4,0,4.8,0,7.1,0c0.9,0.1,1.8-0.1,2.7,0c2.4,0,4.8,0,7.1,0c0.9,0.1,1.8-0.1,2.7,0   c2.4,0,4.8,0,7.1,0c0.9,0.1,1.8-0.1,2.7,0c2.4,0,4.8,0,7.1,0c0.9,0.1,1.8-0.1,2.7,0c2.4,0,4.8,0,7.1,0c0.9,0.1,1.9-0.1,2.6,0.7   c2.4,0,4.9,0,7.3,0c0.8,0,1.6,0,2.5,0c2.5,0,4.9,0,7.4,0c0.8,0,1.6,0,2.5,0c2.5,0,4.9,0,7.4,0c0.8,0,1.6,0,2.5,0   c0.7,0.1,1.4,0.1,2.1,0.2c0.1,0.2,0.3,0.4,0.4,0.5c-0.8,0.6-1.7,1.2-2.5,1.9c-10.6,10.5-21,21.1-31.7,31.6   c-1.6,1.5-1.9,2.5,0.2,3.7c0.5,0.8,1.2,1.5,2,2c0.8,1.1,1.8,2.1,2.9,2.9c0.5,0.8,1.2,1.5,2,2c0.8,1.1,1.8,2.1,2.9,2.9   c0.5,0.8,1.2,1.5,2,2c0.8,1.1,1.8,2.1,2.9,2.9c0.5,0.8,1.2,1.5,2,2c0.8,1.1,1.8,2.1,2.9,2.9c0.5,0.8,1.2,1.5,2,2   c0.8,1.1,1.8,2.1,2.9,2.9c0.5,0.8,1.2,1.5,2,2c0.8,1.1,1.8,2.1,2.9,2.9c0.5,0.8,1.2,1.5,2,2c0.8,1.1,1.8,2.1,2.9,2.9   c0.5,0.8,1.2,1.5,2,2c0.8,1.1,1.8,2.1,2.9,2.9c0.5,0.8,1.2,1.5,2,2c0.8,1.1,1.8,2.1,2.9,2.9c0.6,0.7,0.9,1.3,0,2.2   c-6.8,6.7-13.6,13.5-20.3,20.3c-0.9,0.9-1.5,0.6-2.2,0C246.9,296.2,245.9,295.3,244.8,294.5z"></path>
</g>
</svg>