<svg xmlns="http://www.w3.org/2000/svg" xmlns:xlink="http://www.w3.org/1999/xlink" id="Layer_1" x="0px" y="0px" viewBox="0 0 300 300" style="enable-background:new 0 0 300 300;" xml:space="preserve">
<style type="text/css">
	.st0{fill:#FFFFFF;stroke:#959595;stroke-width:13;stroke-miterlimit:10;}
	.st1{fill:#7B7B7B;stroke:#959595;stroke-width:6;stroke-miterlimit:10;}
	.st2{fill:#959595;}
	.st3{fill:#959595;stroke:#FFFFFF;stroke-miterlimit:10;}
	.st4{fill:#FFFFFF;stroke:#959595;stroke-miterlimit:10;}
</style>
<path class="st0" d="M246.8,114.4c-0.1-9.5-0.5-19-1.7-28.5c-0.7-5.6-2.5-7.7-8-9.2c-18.8-5.2-37.6-10.6-56.5-15.7  c-10.1-2.7-19.9-6.2-30.3-8c-1.1,0-2.3,0-3.4,0c-1.7,0.5-3.5,0.5-5.2,1c-27.4,7.6-54.9,15.3-82.3,22.9c-4.5,1.3-6.5,3.7-7.1,8.4  c-1.6,12.2-1.9,24.6-2.2,36.9c-0.2,7.2,0.3,14.5,0.3,21.7c0,2.1,0.1,4.3,0.3,6.4c0.8,8.4,1.7,16.8,3.4,25.1  c2.2,11.1,5.1,21.9,10,32.2c5.5,11.5,13.6,21.2,22.4,30.3c8.3,8.5,17.7,15.7,27.9,21.7c10.1,6,20.6,11.2,32.2,13.8  c1.3,0,2.6,0,3.9,0c1.9-0.4,3.8-0.7,5.6-1.3c11.4-3.8,22.1-9.1,32.1-15.7c11.8-7.7,22.3-17,31.3-27.9c6-7.3,11.5-14.8,15.2-23.6  c7.8-18.6,11.3-38.1,12.1-58.2c0.1-2.8-0.1-5.7,0.4-8.5c0-0.9,0-1.7,0-2.6c-0.9-0.8-0.3-1.7-0.4-2.6c0-0.9,0-1.7,0-2.6l0,0  c0,0,0,0,0,0c0-0.7,0-1.4,0-2.2c0,0,0,0,0,0c0-1.4,0-2.9,0-4.3c0,0,0,0,0,0c0-0.7,0-1.4,0-2.2c0.1-0.9-0.5-1.8,0.4-2.6  c0-1.1,0-2.3,0-3.4C246.7,115.4,246.9,114.9,246.8,114.4z"></path>
<g>
	<path class="st1" d="M184.1,146.6c0,10-3,17.8-8.7,24.5c-4.8,5.7-7.3,12.2-7.5,19.7c0,0.9-0.3,1.1-1.2,1.1c-1.3-0.1-2.6-0.1-3.8,0   c-0.9,0.1-1.1-0.3-1.1-1.1c0.2-8.6,3-16.4,8.5-23c3.9-4.6,6.6-9.7,7.4-15.7c1.3-10.1-1.6-18.9-9.1-25.8   c-16.6-15.4-42.8-7.3-48.5,14.6c-2.5,9.8,0,18.7,6.5,26.5c5.8,6.9,8.7,14.8,8.8,23.8c0,0.7-0.2,0.8-0.8,0.8c-1.5,0-2.9-0.1-4.4,0   c-0.9,0-1-0.3-1-1.1c0.1-6.9-2.1-13-6.3-18.3c-2.2-2.9-4.5-5.7-6.1-8.9c-10.4-20.9,2.4-46.6,25.3-50.7c19.3-3.5,37.6,8.8,41.5,27.9   C183.9,143,184.2,145.3,184.1,146.6z"></path>
	<path class="st1" d="M148.6,200.9c-4.3,0-8.5,0-12.8,0c-0.8,0-1.1-0.2-1.1-1.1c0.1-1.4,0-2.8,0-4.2c0-0.6,0.1-0.9,0.8-0.9   c8.7,0,17.4,0,26,0c0.8,0,0.9,0.3,0.9,1c0,1.4-0.1,2.7,0,4.1c0.1,1-0.3,1.1-1.2,1.1C157.1,200.9,152.8,200.9,148.6,200.9   C148.6,200.9,148.6,200.9,148.6,200.9z"></path>
	<path class="st1" d="M148.5,210.2c-4.2,0-8.4,0-12.6,0c-0.9,0-1.3-0.1-1.2-1.2c0.1-1.3,0.1-2.6,0-3.8c-0.1-1.1,0.4-1.2,1.3-1.2   c5.7,0,11.5,0,17.2,0c2.7,0,5.4,0.1,8.1,0c1,0,1.2,0.3,1.2,1.2c-0.1,1.3-0.1,2.6,0,3.8c0.1,0.9-0.3,1.1-1.2,1.1   C157.1,210.1,152.8,210.2,148.5,210.2C148.5,210.2,148.5,210.2,148.5,210.2z"></path>
	<path class="st1" d="M145.6,95c0-2.8,0-5.6,0-8.3c0-0.8,0.1-1.1,1-1c1.4,0.1,2.8,0.1,4.2,0c0.7,0,1,0.2,1,0.9c0,5.6,0,11.2,0,16.8   c0,0.8-0.3,0.9-1,0.9c-1.4,0-2.8,0-4.2,0c-0.7,0-0.9-0.2-0.9-0.9C145.6,100.5,145.6,97.7,145.6,95z"></path>
	<path class="st1" d="M95.7,151c-2.8,0-5.5,0-8.3,0c-0.7,0-1-0.2-0.9-0.9c0.1-1.5,0-3,0-4.5c0-0.6,0.1-0.8,0.8-0.8   c5.7,0,11.3,0,17,0c0.6,0,0.8,0.1,0.8,0.8c0,1.5-0.1,3.1,0,4.6c0,0.7-0.3,0.8-0.9,0.8C101.3,151,98.5,151,95.7,151z"></path>
	<path class="st1" d="M190.4,101.8c0.2,0.2,0.4,0.3,0.5,0.5c1.1,1.1,2.1,2.2,3.3,3.3c0.5,0.5,0.4,0.8,0,1.2   c-4,3.9-7.9,7.9-11.9,11.9c-0.5,0.5-0.7,0.6-1.3,0c-1-1.1-2.1-2.1-3.2-3.2c-0.4-0.4-0.6-0.6-0.1-1.1c4.1-4,8.1-8.1,12.2-12.1   C190,102.1,190.2,101.9,190.4,101.8z"></path>
	<path class="st1" d="M194.7,189.8c-0.2,0.2-0.4,0.4-0.5,0.6c-1.1,1.1-2.2,2.1-3.3,3.3c-0.4,0.5-0.7,0.4-1.1,0c-4-4-7.9-8-11.9-12   c-0.4-0.4-0.6-0.7,0-1.2c1.1-1,2.2-2.1,3.3-3.3c0.5-0.5,0.7-0.3,1.1,0c4,4,8,8,12,12C194.3,189.3,194.5,189.5,194.7,189.8z"></path>
	<path class="st1" d="M201.5,151c-2.8,0-5.5,0-8.3,0c-0.7,0-1-0.1-0.9-0.9c0.1-1.4,0.1-2.9,0-4.4c0-0.7,0.1-0.9,0.9-0.9   c5.6,0,11.2,0,16.8,0c0.6,0,0.9,0.1,0.9,0.8c-0.1,1.5-0.1,3,0,4.5c0,0.8-0.3,0.9-1,0.9C207,151,204.3,151,201.5,151z"></path>
	<path class="st1" d="M119.8,114.9c-0.2,0.2-0.3,0.4-0.5,0.5c-1.1,1.1-2.2,2.2-3.3,3.3c-0.4,0.4-0.6,0.4-1,0c-4-4-8-8-12.1-12   c-0.5-0.5-0.3-0.8,0.1-1.1c1.1-1.1,2.2-2.1,3.3-3.3c0.4-0.5,0.7-0.4,1.1,0c3.9,4,7.9,7.9,11.8,11.9   C119.4,114.4,119.6,114.6,119.8,114.9z"></path>
	<path class="st1" d="M106.8,194.1c-0.2-0.2-0.3-0.3-0.5-0.4c-1.1-1.1-2.2-2.2-3.3-3.2c-0.5-0.5-0.4-0.8,0-1.2c4-4,8-8,11.9-12   c0.5-0.5,0.8-0.4,1.2,0.1c1,1.1,2,2.1,3.1,3.1c0.5,0.4,0.5,0.7,0,1.2c-4,4-8,8-12.1,12C107.1,193.8,107,193.9,106.8,194.1z"></path>
	<path class="st1" d="M148.5,219.4c-1.6,0-3.2,0-4.9,0c-0.7,0-1-0.1-0.9-0.9c0.1-1.4,0-2.9,0-4.3c0-0.7,0.1-1,0.9-1   c3.3,0,6.6,0,9.8,0c0.7,0,1,0.2,1,0.9c-0.1,1.5,0,3,0,4.5c0,0.6-0.2,0.8-0.8,0.8C151.9,219.3,150.2,219.4,148.5,219.4   C148.5,219.4,148.5,219.4,148.5,219.4z"></path>
</g>
<g id="gGiNtZ.tif">
	<g>
		<path class="st2" d="M170.4,260.9c0-1.6,0-3.3,0-4.9c0.2-2.8,0.6-5.6,1.3-8.3c1.8-6.8,4.5-13.1,7.8-19.2c4.9-9,10.9-17.2,17.5-25    c1.8-2.2,3.7-4.3,5.8-6.3c0.6-0.6,1.2-1.1,2-1.3c0.7,0,1.3,0,2,0c1,0.1,1.7,0.6,2.3,1.3c5.6,5.8,10.7,12,15.3,18.6    c4.1,5.7,7.7,11.7,10.7,18.1c3.1,6.5,5.6,13.2,6.3,20.4c0.7,7.6,0.3,15-3.5,22c-5.8,10.7-14.6,17.5-26.8,19.2    c-10.1,1.4-19.5-0.8-27.6-7.4c-6.7-5.4-11-12.4-12.8-20.8c-0.3-1.2-0.2-2.5-0.4-3.7"></path>
		<path class="st3" d="M170.4,260.9"></path>
		<path class="st3" d="M170.4,262.2"></path>
		<path class="st4" d="M234.5,259.6c0.2,14.2-10.2,26.4-24,28.5c-15.3,2.4-29.7-7.8-32.5-23c-1-5.6-0.3-11,1.2-16.4    c2.7-9.8,7.6-18.6,13.3-26.9c3.9-5.8,8.3-11.3,13-16.5c0.4-0.5,0.6-0.7,1.2-0.1c8.4,9.5,15.9,19.7,21.5,31.1    c2.7,5.6,4.8,11.3,5.8,17.5C234.3,255.8,234.4,257.8,234.5,259.6z"></path>
		<path class="st3" d="M205.4,281.3c-9.7-0.1-18.5-7.6-20.3-17c-0.3-1.5-0.5-3-0.5-4.5c0-2,1.6-3.6,3.6-3.6c1.9,0,3.5,1.6,3.5,3.6    c0.2,7.1,4.7,12.6,11.4,14.1c0.9,0.2,1.8,0.3,2.8,0.3c2.2,0.1,3.7,1.6,3.6,3.6c0,2-1.6,3.5-3.8,3.5    C205.6,281.3,205.4,281.3,205.4,281.3z"></path>
	</g>
</g>
</svg>