<svg xmlns="http://www.w3.org/2000/svg" xmlns:xlink="http://www.w3.org/1999/xlink" id="Layer_1" x="0px" y="0px" viewBox="0 0 300 300" style="enable-background:new 0 0 300 300;" xml:space="preserve">
<style type="text/css">
	.st0{fill:#FFFFFF;stroke:#959595;stroke-width:13;stroke-miterlimit:10;}
	.st1{fill:#FFFFFF;stroke:#959595;stroke-width:12;stroke-miterlimit:10;}
	.st2{fill:#959595;}
</style>
<g id="Ww9Xjr_1_">
	<g>
		<path class="st0" d="M237.75,222.53c0,12.78,0.01,25.56,0,38.34c-0.01,7.28-4.51,11.82-11.8,11.83    c-20.27,0.02-40.55-0.02-60.82,0.06c-1.88,0.01-2.11-0.65-2.11-2.25c0.05-19.76-0.01-39.51,0.09-59.27    c0.01-2.21-0.64-2.61-2.69-2.6c-12.56,0.1-25.12,0.1-37.68,0c-2.09-0.02-2.49,0.62-2.49,2.57c0.07,19.76,0.02,39.51,0.09,59.27    c0.01,1.84-0.51,2.28-2.31,2.27c-20.05-0.07-40.11-0.04-60.16-0.04c-7.88,0-12.27-4.39-12.27-12.25c0-25.63,0.02-51.27-0.04-76.9    c0-1.79,0.54-2.94,1.93-4.08c19.52-16.02,39-32.09,58.48-48.15c11.33-9.34,22.67-18.67,33.95-28.06c1.32-1.1,2.16-1.11,3.49-0.01    c19.39,16.06,38.82,32.08,58.25,48.1c11.44,9.43,22.87,18.88,34.35,28.26c1.26,1.03,1.79,2.06,1.78,3.71    C237.72,196.38,237.75,209.46,237.75,222.53z"></path>
		<path class="st0" d="M195.02,96.96c0-10.6,0.01-20.72-0.01-30.85c0-1.26-0.01-2.53,0.48-3.69c1.05-2.5,3.22-3.28,5.71-3.28    c10.06-0.02,20.13-0.04,30.19,0c4.39,0.02,6.35,2.1,6.36,6.58c0.01,21.59,0.02,43.18-0.02,64.78c0,1.43,0.34,2.4,1.5,3.36    c10.88,8.96,21.71,17.98,32.54,26.99c0.79,0.66,1.6,1.3,2.34,2.01c2.34,2.24,2.78,4.94,0.8,7.47c-3.3,4.22-6.74,8.34-10.31,12.33    c-2.38,2.66-5.29,2.63-8.2,0.21c-12.92-10.75-25.83-21.52-38.74-32.28c-23.74-19.79-47.48-39.57-71.22-59.36    c-1.13-0.94-2.35-1.79-3.36-2.84c-1.08-1.13-1.8-0.83-2.88,0.07c-21.57,18.03-43.18,36.02-64.78,54.02    c-16.13,13.44-32.25,26.89-48.39,40.32c-3.27,2.72-6.19,2.42-8.98-0.86c-2.95-3.47-5.85-6.97-8.77-10.47    c-2.95-3.54-2.81-6.32,0.71-9.27c11.92-10,23.9-19.94,35.85-29.9c25.77-21.47,51.54-42.96,77.34-64.4    c3.14-2.61,6.01-5.65,9.88-7.28c7.77-3.28,15.12-2.57,21.67,2.81c12.82,10.53,25.49,21.24,38.23,31.87    C193.5,95.76,194.07,96.2,195.02,96.96z"></path>
	</g>
</g>
<g id="f19nVw.tif">
	<g>
		<path class="st1" d="M236.73,169.18c0.64,0,1.29,0,1.93,0c5.8,1,11.35,2.94,17.01,4.48c10.6,2.88,21.17,5.89,31.76,8.82    c3.07,0.85,4.1,2.06,4.5,5.2c0.67,5.32,0.89,10.67,0.95,16.03c0,0.27-0.08,0.57,0.12,0.81c0,0.65,0,1.29,0,1.94    c-0.26,0.49-0.06,1.02-0.12,1.52c0,0.4,0,0.81,0,1.21c0,0.76,0,1.52,0,2.28c0,0.41,0,0.82,0,1.24c0,0.47,0,0.94,0,1.41    c0.06,0.51-0.14,1.04,0.12,1.54c0,0.48,0,0.97,0,1.45c-0.3,1.59-0.15,3.2-0.21,4.79c-0.47,11.28-2.45,22.24-6.82,32.7    c-2.05,4.92-5.16,9.19-8.53,13.26c-5.06,6.13-10.95,11.33-17.59,15.68c-5.64,3.7-11.64,6.69-18.04,8.84    c-1.03,0.35-2.1,0.48-3.14,0.72c-0.72,0-1.45,0-2.17,0c-6.51-1.47-12.4-4.41-18.1-7.76c-5.75-3.39-11.03-7.44-15.68-12.22    c-4.96-5.09-9.49-10.54-12.6-17.03c-2.75-5.75-4.4-11.85-5.64-18.08c-0.93-4.67-1.46-9.4-1.89-14.13    c-0.11-1.2-0.16-2.42-0.16-3.62c0-4.07-0.23-8.14-0.15-12.21c0.14-6.93,0.34-13.85,1.23-20.73c0.34-2.61,1.45-4,3.99-4.7    c15.43-4.28,30.86-8.61,46.29-12.89C234.76,169.45,235.77,169.46,236.73,169.18z"></path>
		<path class="st1" d="M292.79,211.54c0-0.81,0-1.62,0-2.43c0.08-0.1,0.15-0.1,0.21,0.01c0,0.81,0,1.61,0,2.42    C292.93,211.65,292.86,211.65,292.79,211.54z"></path>
		<path class="st1" d="M292.79,207.9c0.05-0.48-0.28-1.02,0.21-1.44c0,0.48,0,0.97,0,1.45C292.93,208.02,292.86,208.02,292.79,207.9    z"></path>
		<path class="st1" d="M292.8,214.21c0-0.48,0-0.97-0.01-1.45c0.06-0.12,0.13-0.12,0.21-0.01c0,0.48,0,0.97,0,1.45    C292.94,214.31,292.87,214.31,292.8,214.21z"></path>
		<path class="st1" d="M292.8,214.21c0.07,0,0.13,0,0.2-0.01c0,0.48,0,0.97,0,1.45C292.52,215.23,292.84,214.69,292.8,214.21z"></path>
		<path class="st1" d="M292.79,207.9c0.07,0,0.14,0.01,0.21,0.01c0,0.4,0,0.81,0,1.21c-0.07,0-0.14,0-0.21-0.01    C292.79,208.7,292.79,208.3,292.79,207.9z"></path>
		<path class="st1" d="M293,212.75c-0.07,0-0.14,0-0.21,0.01c0-0.4-0.01-0.81-0.01-1.21c0.07,0,0.14-0.01,0.21-0.01    C293,211.94,293,212.34,293,212.75z"></path>
		<path class="st2" d="M270.85,212.35c0.04,1.33-0.61,2.3-1.5,3.19c-5.84,5.84-11.66,11.69-17.5,17.53    c-5.18,5.19-10.35,10.38-15.53,15.57c-2.27,2.27-4.4,2.26-6.68-0.02c-6.66-6.67-13.32-13.34-19.97-20.02    c-2.22-2.23-2.23-4.38-0.04-6.6c1.07-1.09,2.15-2.17,3.24-3.25c2.27-2.26,4.38-2.25,6.67,0.04c4.21,4.22,8.44,8.42,12.61,12.68    c0.68,0.7,1.02,0.63,1.67-0.02c8.46-8.52,16.94-17,25.42-25.5c2.46-2.46,4.5-2.47,6.94-0.03c1.11,1.11,2.22,2.22,3.33,3.34    C270.37,210.12,270.92,211.11,270.85,212.35z"></path>
	</g>
</g>
</svg>