<svg xmlns="http://www.w3.org/2000/svg" xmlns:xlink="http://www.w3.org/1999/xlink" id="Layer_1" x="0px" y="0px" viewBox="0 0 300 300" style="enable-background:new 0 0 300 300;" xml:space="preserve">
<style type="text/css">
	.st0{fill:#959595;stroke:#959595;stroke-width:4;stroke-miterlimit:10;}
</style>
<g>
	<g>
		<path class="st0" d="M238.6,125.02c-10.3,10.47-20.46,21.1-31.48,30.84c-1.38,1.22-0.87,2.72-0.8,4.17    c0.57,1.14,0.28,2.37,0.28,3.55c0.02,43.13,0.01,86.26,0.03,129.38c0,1.51-0.61,3.33,1.45,4.17c10.03,0.37,20.06,0.08,30.08,0.16    c1.6,0.01,2.47-0.64,2.43-2.31c-0.01-0.5,0.02-1,0.02-1.5c0-54.88,0.01-109.75-0.03-164.63    C240.58,127.35,241.35,125.2,238.6,125.02z"></path>
		<path class="st0" d="M187.06,173.34c-10.75,8.56-22.04,16.41-33.05,24.63c0.41,1.07,0.21,2.18,0.21,3.27    c0.01,30.14,0.01,60.29,0.01,90.43c0,0.8,0.05,1.61-0.01,2.4c-0.16,2.38,0.76,3.31,3.29,3.27c9.11-0.13,18.23-0.04,27.34-0.07    c1.15,0,2.48,0.31,3.19-1.07c0.26-0.98,0.19-1.99,0.19-2.99c0.01-38.61,0.01-77.22-0.02-115.84    C188.21,175.98,188.84,174.28,187.06,173.34z"></path>
		<path class="st0" d="M49.11,227.9c13.57-2.82,26.48-6.91,39.09-11.98c33.16-13.34,62.84-32.46,90.43-54.96    c21.64-17.65,41.59-37.06,59.86-58.19c1.43-1.65,2.35-2.04,4.21-0.45c3.86,3.3,7.98,6.29,12.41,9.74    c-0.68-5.85-1.27-11.16-1.93-16.47c-0.7-5.66-1.54-11.31-2.18-16.98c-0.18-1.65-0.5-2.1-2.34-1.85    c-10.9,1.45-21.83,2.7-33.07,4.05c1.39,1.99,3.34,3.01,4.95,4.37c2.38,1.99,4.84,3.89,7.37,5.68c1.49,1.06,1.83,1.74,0.43,3.32    c-31.53,35.78-66.72,67.24-108.14,91.28c-21.71,12.6-44.54,22.55-69.08,28.26c-1.47,0.34-2.12,0.93-2.06,2.59    C49.21,220.09,49.11,223.9,49.11,227.9z"></path>
		<path class="st0" d="M135.92,297.43c0.81-0.61,0.44-1.48,0.44-2.23c0.03-28.49,0.03-56.99,0.02-85.48c0-0.19-0.09-0.37-0.15-0.62    c-1.42-0.11-2.36,0.95-3.43,1.56c-9.48,5.37-19.18,10.32-29.12,14.8c-0.77,0.35-1.77,0.37-2.07,1.41    c0.38,0.76,0.23,1.57,0.23,2.36c0.03,21.8-0.05,43.61,0.06,65.41c0,0.52-0.07,0.99-0.3,1.44c0,0.2,0,0.41-0.01,0.61    c1.14,0.9,2.49,0.57,3.76,0.58C115.54,297.39,125.73,297.12,135.92,297.43z"></path>
		<path class="st0" d="M80.47,234.71c-9.84,2.93-19.62,6.1-29.75,7.94c-1.1,0.2-1.64,0.7-1.64,2.01    c0.09,17.34,0.11,34.69,0.15,52.03c1.86,0.61,3.77,0.26,5.66,0.27c8.33,0.05,16.66,0.03,24.98,0.01c0.94,0,1.91,0.14,2.86-0.16    c-0.81,0.34-1.68,0.17-2.5,0.17c-9.33,0.02-18.66,0-27.99,0.02c-0.98,0-2.01-0.25-2.95,0.27c0.5,1.01,1.42,0.48,2.11,0.48    c10.02,0.04,20.03-0.04,30.04,0.08c2.18,0.03,2.64-0.69,2.63-2.72c-0.07-19.83-0.04-39.66-0.1-59.49c0-0.64,1.04-2.63-1.3-1.67    c-0.22,0.88,0.52,1.56,0.51,2.41c-0.02,19.32,0,38.63-0.01,57.95c-0.04-19.47,0.01-38.93-0.03-58.4    C82.76,234.44,81.45,234.93,80.47,234.71z"></path>
		<path class="st0" d="M238.6,125.02c1.92,0.77,1.4,2.46,1.4,3.89c0.02,29.28,0.02,58.55,0.02,87.83c0,25.47-0.05,50.93,0.07,76.4    c0.01,2.94-0.85,3.68-3.7,3.63c-9.42-0.18-18.85-0.07-28.27-0.07c-0.05,0.65,0.33,0.88,0.9,0.87c10.56-0.12,21.12,0.34,31.68-0.24    c0.59-0.44,0.4-1.08,0.4-1.65c0-57.2,0-114.4,0-171.61c0-0.36,0-0.72,0-1.48C239.78,123.31,239.14,124.11,238.6,125.02z"></path>
		<path class="st0" d="M240.69,297.32c-9.82-0.01-19.64-0.01-29.46-0.05c-1.05,0-2.23,0.4-3.12-0.58c-1.52-1.03-1.2-2.6-1.2-4.07    c0-42.96,0-85.92-0.03-128.87c0-1.24,0.5-2.62-0.56-3.72c-0.04,0.8-0.12,1.6-0.12,2.4c-0.01,43.84-0.01,87.67-0.01,131.51    c0,3.87,0.02,3.87,4.01,3.87c9.33,0,18.66,0.01,27.99-0.02C239.02,297.78,240,298.23,240.69,297.32z"></path>
		<path class="st0" d="M187.64,296.09c-0.79,0.92-1.86,0.59-2.82,0.59c-9.13,0.02-18.27-0.11-27.39,0.09    c-2.46,0.05-2.9-0.99-2.9-2.91c0-0.8,0-1.61,0-2.41c0-30,0.01-60.01-0.02-90.01c0-1.16,0.41-2.42-0.49-3.47    c-0.06,0.89-0.18,1.79-0.18,2.68c-0.01,31.09-0.01,62.18-0.01,93.27c0,3.88,0.01,3.88,4.02,3.88c9.33,0,18.65,0.02,27.98-0.03    c0.9-0.01,2.01,0.56,2.74-0.53c-0.04-0.41-0.03-0.83-0.22-1.22C188.1,295.86,187.86,295.88,187.64,296.09z"></path>
		<path class="st0" d="M188.15,296.06c0.14,0.39,0.28,0.78,0.42,1.18c0.06-1.09,0.16-2.19,0.16-3.28c0.01-39.3,0.01-78.59,0-117.89    c0-1.19-0.07-2.39-0.12-3.58c0-0.03-0.12-0.09-0.17-0.08c-0.09,0.03-0.17,0.11-0.25,0.16c-0.67,1.45-0.23,2.97-0.23,4.44    c-0.03,38.59-0.03,77.18-0.02,115.77C187.96,293.88,187.76,294.99,188.15,296.06z"></path>
		<path class="st0" d="M188.15,296.06c0.02-18.73,0.06-37.46,0.07-56.19c0.01-22.44-0.01-44.87-0.02-67.31    c-0.58-0.05-0.87,0.36-1.15,0.77c0.82,1.28,0.57,2.71,0.57,4.1c0.01,39.55,0.01,79.1,0.01,118.66    C187.81,296.09,187.98,296.08,188.15,296.06z"></path>
		<path class="st0" d="M101.6,296.08c0.44-0.26,0.82-0.54,0.8-1.14c-0.6-21.64-0.09-43.28-0.28-64.92    c-0.01-1.06,0.38-2.22-0.51-3.16c-0.05,10.29-0.13,20.57-0.13,30.86C101.49,270.51,101.56,283.3,101.6,296.08z"></path>
		<path class="st0" d="M135.92,297.43c-0.91-1.2-2.22-0.71-3.35-0.72c-10.32-0.04-20.65-0.02-30.97-0.02    c-0.22,1.08,0.49,1.09,1.23,1.09c10.87-0.01,21.74-0.01,32.61-0.04C135.59,297.75,135.76,297.54,135.92,297.43z"></path>
		<path class="st0" d="M49.29,297.29c11.18,0,22.36,0,33.54,0c0-0.2,0-0.4,0-0.6c-11.2,0-22.4,0-33.6,0    C49.25,296.89,49.27,297.09,49.29,297.29z"></path>
		<path class="st0" d="M80.47,234.71c0.64,0.85,1.58,0.49,2.4,0.57c0.13-0.46,0.59-0.97-0.19-1.3    C81.88,234.01,81.1,234.13,80.47,234.71z"></path>
		<path class="st0" d="M135.23,213.18c0,27.46,0,54.92,0,82.38c0.14,0,0.28,0,0.42,0c0-27.48,0-54.97,0-82.45    C135.51,213.13,135.37,213.15,135.23,213.18z"></path>
		<ellipse class="st0" cx="82.99" cy="265.43" rx="0.26" ry="42.64"></ellipse>
	</g>
	<g>
		<path class="st0" d="M178.82,92.95c-2.26-0.02-4.52,0.01-6.79-0.01c-7.27-0.08-5.42,0.8-8.23-5.59c-0.78-1.77-0.53-2.99,0.83-4.3    c2.62-2.52,5.16-5.12,7.72-7.7c1.27-1.27,1.34-2.44,0.03-3.74c-4.17-4.17-8.34-8.34-12.51-12.51c-1.31-1.3-2.47-1.24-3.74,0.03    c-1.71,1.71-3.42,3.44-5.15,5.13c-5.45,5.33-3.36,4.54-10.22,2.07c-1.63-0.59-2.28-1.54-2.24-3.24c0.07-3.39,0.03-6.79,0.01-10.18    c-0.01-1.03,0.16-2.13-0.66-2.99c-7.28,0-14.56,0-21.85,0c-0.76,0.79-0.65,1.79-0.66,2.75c-0.02,2.26,0.01,4.52-0.01,6.79    c-0.08,7.27,0.8,5.42-5.59,8.23c-1.77,0.78-2.99,0.53-4.3-0.83c-2.52-2.62-5.12-5.16-7.7-7.72c-1.27-1.27-2.44-1.34-3.74-0.03    c-4.17,4.17-8.34,8.34-12.51,12.51c-1.3,1.31-1.24,2.47,0.03,3.74c1.71,1.71,3.44,3.42,5.13,5.15c5.33,5.45,4.54,3.36,2.07,10.22    c-0.59,1.63-1.54,2.28-3.24,2.24c-3.39-0.07-6.79-0.03-10.18-0.01c-1.03,0.01-2.13-0.16-2.99,0.66c0,7.28,0,14.56,0,21.85    c0.79,0.76,1.79,0.65,2.75,0.66c2.26,0.02,4.52-0.01,6.79,0.01c7.27,0.08,5.42-0.8,8.23,5.59c0.78,1.77,0.53,2.99-0.83,4.3    c-2.62,2.52-5.16,5.12-7.72,7.7c-1.27,1.27-1.34,2.44-0.03,3.74c4.17,4.17,8.34,8.34,12.51,12.51c1.31,1.3,2.47,1.24,3.74-0.03    c1.71-1.71,3.42-3.44,5.15-5.13c5.45-5.33,3.36-4.54,10.22-2.07c1.63,0.59,2.28,1.54,2.24,3.24c-0.07,3.39-0.03,6.79-0.01,10.18    c0.01,1.03-0.16,2.13,0.66,2.99c7.28,0,14.56,0,21.85,0c0.76-0.79,0.65-1.79,0.66-2.75c0.02-2.26-0.01-4.52,0.01-6.79    c0.08-7.27-0.8-5.42,5.59-8.23c1.77-0.78,2.99-0.53,4.3,0.83c2.52,2.62,5.12,5.16,7.7,7.72c1.27,1.27,2.44,1.34,3.74,0.03    c4.17-4.17,8.34-8.34,12.51-12.51c1.3-1.31,1.24-2.47-0.03-3.74c-1.71-1.71-3.44-3.42-5.13-5.15c-5.33-5.45-4.54-3.36-2.07-10.22    c0.59-1.63,1.54-2.28,3.24-2.24c3.39,0.07,6.79,0.03,10.18,0.01c1.03-0.01,2.13,0.16,2.99-0.66c0-7.28,0-14.56,0-21.85    C180.79,92.85,179.78,92.96,178.82,92.95z M168.83,108.17c-2.51,0-5.02,0.07-7.52-0.03c-1.18-0.05-1.78,0.31-1.96,1.48    c-0.8,5.19-2.82,9.89-5.86,14.13c-0.72,1-0.62,1.6,0.25,2.44c2.74,2.63,5.35,5.41,8.1,8.02c1.02,0.96,0.94,1.48-0.01,2.46    c-3.9,4-3.86,4.04-7.76,0.12c-1.77-1.78-3.59-3.51-5.3-5.34c-0.83-0.89-1.44-1.22-2.61-0.39c-4.17,3-8.79,5.03-13.9,5.8    c-1.43,0.22-1.74,0.92-1.7,2.28c0.1,3.72,0.01,7.44,0.05,11.16c0.01,1.05-0.13,1.53-1.4,1.58c-5.9,0.26-5.9,0.31-5.9-5.56    c0-2.51-0.09-5.02,0.04-7.52c0.06-1.27-0.46-1.74-1.55-1.91c-5.18-0.81-9.87-2.84-14.12-5.88c-1.05-0.75-1.62-0.5-2.42,0.33    c-2.59,2.67-5.3,5.23-7.86,7.92c-0.98,1.03-1.52,1.21-2.64,0.09c-3.91-3.91-3.96-3.86-0.02-7.77c1.84-1.82,3.64-3.68,5.52-5.46    c0.77-0.74,0.93-1.3,0.25-2.25c-3.09-4.32-5.15-9.08-5.97-14.35c-0.16-1.04-0.65-1.46-1.78-1.4c-1.94,0.11-3.88,0.03-5.82,0.03    c-0.65,0-1.29,0-1.94,0c-5.43,0-5.36,0-5.4-5.32c-0.01-1.56,0.37-2.05,1.98-2c3.64,0.13,7.28-0.02,10.92,0.07    c1.28,0.03,1.91-0.31,2.11-1.6c0.78-5.11,2.77-9.73,5.77-13.91c0.76-1.07,0.69-1.71-0.27-2.63c-2.75-2.62-5.36-5.39-8.1-8.02    c-0.93-0.89-0.85-1.38,0.01-2.29c3.94-4.14,3.91-4.17,7.92-0.12c1.77,1.78,3.61,3.48,5.29,5.35c0.92,1.02,1.59,0.96,2.63,0.23    c4.12-2.92,8.66-4.92,13.68-5.71c1.26-0.2,1.9-0.66,1.84-2.18c-0.15-3.72,0.02-7.44-0.08-11.16c-0.04-1.42,0.45-1.7,1.77-1.71    c5.55-0.05,5.55-0.1,5.55,5.42c0,2.59,0.08,5.18-0.03,7.77c-0.05,1.17,0.42,1.59,1.43,1.75c5.26,0.84,10.04,2.88,14.34,5.99    c1.15,0.83,1.67,0.26,2.4-0.48c2.66-2.71,5.39-5.36,8.04-8.09c0.75-0.77,1.19-0.93,2.11-0.09c4.36,3.99,4.39,3.95,0.21,8.11    c-1.78,1.77-3.51,3.59-5.34,5.3c-0.87,0.81-1.01,1.42-0.28,2.43c3.04,4.25,5.07,8.94,5.88,14.13c0.18,1.14,0.71,1.55,1.93,1.52    c3.8-0.09,7.61,0.01,11.41-0.06c1.24-0.02,1.61,0.29,1.64,1.59C174.44,108.17,174.49,108.17,168.83,108.17z"></path>
		<path class="st0" d="M126.96,79.04c-13.93,0-25.44,11.44-25.49,25.36c-0.05,14.05,11.45,25.61,25.48,25.62    c13.93,0,25.44-11.44,25.49-25.36C152.49,90.61,140.99,79.04,126.96,79.04z M126.83,122.73c-9.99-0.01-18.08-8.16-18.08-18.2    c0-10.15,8.12-18.21,18.32-18.2c9.99,0.01,18.08,8.15,18.08,18.2C145.15,114.67,137.03,122.75,126.83,122.73z"></path>
	</g>
</g>
</svg>