<svg xmlns="http://www.w3.org/2000/svg" xmlns:xlink="http://www.w3.org/1999/xlink" id="Layer_1" x="0px" y="0px" viewBox="0 0 300 300" style="enable-background:new 0 0 300 300;" xml:space="preserve">
<style type="text/css">
	.st0{fill:#FFFFFF;stroke:#959595;stroke-width:13;stroke-miterlimit:10;}
	.st1{fill:#959595;}
</style>
<circle class="st0" cx="145.7" cy="173.4" r="118"></circle>
<g>
	<path class="st1" d="M129.4,206.5c23.4,0,46.8,0,70.3,0c1.6,0,2.1-0.3,2.1-2c0-4.8,3.1-7.8,7.8-7.8c1.7,0,3.3,0,5,0   c5,0,8.1,3.1,8.1,8c0,1.5,0.3,1.9,1.8,1.8c2.9-0.1,5.8,0,8.7-0.1c1.3,0,1.5,0.4,1.5,1.6c-0.1,5-0.1,10,0,15c0,1.3-0.3,1.7-1.6,1.7   c-3-0.1-6,0-8.9-0.1c-1,0-1.6,0.1-1.5,1.4c0.3,4.8-3,9-8.8,8.5c-1.4-0.1-2.9,0-4.4,0c-4.5,0-7.7-3.1-7.7-7.6c0-2-0.6-2.3-2.4-2.3   c-46.8,0.1-93.7,0-140.5,0.1c-1.6,0-2.1-0.3-2.1-2c0.1-4.8,0.1-9.6,0-14.4c0-1.5,0.4-1.8,1.8-1.8   C82.2,206.5,105.8,206.5,129.4,206.5z"></path>
	<path class="st1" d="M162,140c-23.4,0-46.8,0-70.2,0c-1.5,0-2.1,0.3-2.3,1.9c-0.4,3.7-3,6.1-6.7,6.4c-2.4,0.2-4.8,0.2-7.1,0   c-3.9-0.3-6.5-2.9-6.8-6.7c-0.1-1.5-0.7-1.7-1.9-1.6c-2.8,0.1-5.6,0-8.3,0.1c-1.4,0.1-1.9-0.2-1.9-1.8c0.1-4.9,0.1-9.8,0-14.8   c0-1.3,0.2-1.7,1.6-1.7c3,0.1,6.1,0,9.1,0.1c1,0,1.4-0.3,1.3-1.3c-0.1-0.8,0-1.6,0-2.4c0.1-4.4,3.2-7.5,7.6-7.5c1.9,0,3.8,0,5.8,0   c4.3,0,7.5,3.1,7.6,7.5c0.1,3.7,0.1,3.7,3.9,3.7c46.3,0,92.6,0,138.9,0c1.7,0,2.3,0.3,2.3,2.2c-0.2,4.7-0.1,9.3,0,14   c0,1.6-0.4,2.1-2,2.1C209.1,140,185.6,140,162,140z"></path>
	<path class="st1" d="M96.3,164.1c12.4,0,24.7,0,37.1,0c1.6,0,2-0.4,2-2c-0.1-4.9,3-7.9,7.9-7.9c1.7,0,3.3,0,5,0   c4.8,0,7.8,2.9,7.8,7.8c0,1.6,0.4,2.1,2.1,2.1c24.8-0.1,49.6,0,74.4-0.1c1.7,0,2.2,0.3,2.2,2.1c-0.2,4.7-0.1,9.4,0,14.2   c0,1.5-0.3,2-1.9,2c-24.7-0.1-49.5,0-74.2-0.1c-2,0-2.5,0.4-2.5,2.5c0,4.3-3.1,7.3-7.4,7.4c-2,0-4,0-6,0c-4.3-0.1-7.4-3.2-7.3-7.5   c0-1.9-0.5-2.4-2.4-2.4c-24.7,0.1-49.5,0-74.2,0.1c-1.7,0-2.1-0.4-2-2.1c0.1-4.9,0.1-9.7,0-14.6c0-1.3,0.4-1.6,1.6-1.6   C71,164.2,83.7,164.1,96.3,164.1z"></path>
</g>
</svg>