<svg xmlns="http://www.w3.org/2000/svg" xmlns:xlink="http://www.w3.org/1999/xlink" id="Layer_1" x="0px" y="0px" viewBox="0 0 300 300" style="enable-background:new 0 0 300 300;" xml:space="preserve">
<style type="text/css">
	.st0{fill:#959595;}
	.st1{fill:#959595;stroke:#FFFFFF;stroke-miterlimit:10;}
	.st2{fill:#FFFFFF;stroke:#959595;stroke-miterlimit:10;}
</style>
<g id="gGiNtZ.tif">
	<g>
		<path class="st0" d="M65.22,213.49c0-3.95,0-7.9,0-11.86c0.54-6.78,1.46-13.49,3.17-20.11c4.24-16.37,10.95-31.71,18.97-46.52    c11.81-21.82,26.43-41.68,42.43-60.54c4.47-5.26,9-10.49,13.98-15.3c1.45-1.4,2.91-2.62,4.91-3.05c1.62,0,3.23,0,4.85,0    c2.32,0.31,4.04,1.56,5.66,3.22c13.6,14,25.8,29.15,37.08,45.06c9.84,13.87,18.62,28.37,25.85,43.77    c7.4,15.76,13.48,32.01,15.17,49.47c1.78,18.36,0.67,36.42-8.4,53.16c-14.08,26.02-35.42,42.3-64.8,46.42    c-24.54,3.44-47.29-2.01-66.93-17.87c-16.24-13.12-26.52-29.96-30.96-50.36c-0.65-2.97-0.4-6.04-0.98-9.02"></path>
		<path class="st1" d="M65.22,213.49"></path>
		<path class="st1" d="M65.22,216.72"></path>
		<path class="st2" d="M220.28,210.34c0.4,34.26-24.76,63.89-58.1,69c-37.16,5.7-71.91-18.86-78.59-55.61    c-2.44-13.44-0.72-26.63,2.83-39.63c6.5-23.77,18.36-44.94,32.11-65.15c9.55-14.03,20.1-27.29,31.38-39.97    c1-1.12,1.52-1.62,2.8-0.17c20.34,23.07,38.6,47.58,52.17,75.34c6.59,13.47,11.69,27.44,14.12,42.3    C219.79,201.24,220.16,206.07,220.28,210.34z"></path>
		<path class="st1" d="M149.98,263.07c-23.4-0.31-44.75-18.42-49.21-41.12c-0.71-3.62-1.19-7.24-1.1-10.94    c0.12-4.91,3.94-8.78,8.7-8.72c4.66,0.06,8.38,3.83,8.54,8.62c0.55,17.18,11.27,30.49,27.62,34.13c2.17,0.48,4.43,0.66,6.66,0.75    c5.21,0.23,8.85,3.81,8.8,8.81c-0.05,4.92-3.87,8.45-9.13,8.46C150.32,263.07,149.79,263.07,149.98,263.07z"></path>
	</g>
</g>
</svg>