<svg xmlns="http://www.w3.org/2000/svg" xmlns:xlink="http://www.w3.org/1999/xlink" id="Layer_1" x="0px" y="0px" viewBox="0 0 300 300" style="enable-background:new 0 0 300 300;" xml:space="preserve">
<style type="text/css">
	.st0{fill:#959595;}
	.st1{fill:none;stroke:#929292;stroke-width:14;stroke-miterlimit:10;}
</style>
<g>
	<path class="st0" d="M198.95,164.57c-0.04-0.52-0.03-1.04-0.11-1.55c-1.16-6.7-4.73-11.95-9.85-16.25   c-5.15-4.33-11.12-7.04-17.63-8.58c-0.93-0.22-1.3-0.57-1.23-1.54c0.06-0.81,0.18-1.65-0.11-2.45c0,1.12,0,2.24,0,3.36   c-0.11,0-0.21,0-0.32,0c0.14-1.35-0.26-2.71,0.25-4.06c-0.28-1.81-0.94-3.45-2.92-3.84c-0.92-0.18-0.97-0.53-0.96-1.24   c0.03-3.82-0.03-7.64,0.06-11.46c0.09-3.69,0.33-7.37,1.51-10.92c1.4-4.2,4.23-6.76,8.61-7.56c0.89-0.16,1.79-0.3,2.68-0.45   c0.07-0.06,0.14-0.1,0.21-0.13c0.28-0.17,0.38-0.17,0.9-0.17c14.32,0,28.63,0,42.95,0c3.79,0,7.57,0.01,11.36-0.01   c0.5,0,1.06,0.18,1.47-0.3v0v0c-0.08-0.1-0.14-0.22-0.23-0.3c-4.66-4.19-9.66-7.96-14.93-11.35c-0.48-0.31-0.97-0.31-1.49-0.31   c-15.35,0-30.71,0-46.06,0c-2.24,0-4.43,0.34-6.52,1.13c-6.36,2.41-9.94,7.31-12.04,13.52c-1.68,4.94-1.78,10.06-1.73,15.21   c0.04,4.39,0.05,8.79,0.04,13.18c0,0.39,0.31,0.93-0.48,1.12c-2.48,0.61-3.57,2.2-3.54,4.95c0.49,1.01,0.2,2.06,0.18,3.09   c0,0.02-0.07,0.05-0.1,0.04c-0.04,0-0.08-0.03-0.12-0.05c-0.71,0.19-1.42,0.38-2.14,0.56c-8.27,2.1-15.64,5.79-21.32,12.33   c-3.62,4.17-5.93,8.96-6.25,14.57c26.03,0,52.06,0,78.09,0C197.81,165.09,198.5,165.23,198.95,164.57z M127.3,157.42   c0.6-6.36,11.15-14.67,17.4-13.5C137.32,146.63,131.91,151.38,127.3,157.42z"></path>
	<polygon class="st0" points="206.25,173.13 206.25,173.13 206.25,173.13  "></polygon>
	<path class="st0" d="M113.89,172.93c30.32-0.01,60.65-0.01,90.97,0c0.46,0,0.96-0.14,1.38,0.2c1.49-1.14,1.64-3.37,0.35-4.97   c0,0-0.09,0.07-0.09,0.07c0,0,0,0,0,0c0,0,0,0,0,0c-0.39,0.41-0.9,0.24-1.36,0.24c-30.51,0.01-61.02,0.01-91.53,0   c-0.46,0-0.97,0.15-1.36-0.25c-0.11-0.01-0.22-0.02-0.32-0.03c-1.33,1.76-1.05,4.17,0.59,4.97   C112.92,172.78,113.43,172.93,113.89,172.93z"></path>
	<path class="st0" d="M165.19,196.33c-0.9-4.77-3.11-8.99-5.54-13.12c-0.44-0.74-0.63-0.25-0.85,0.13c-1.99,3.37-3.79,6.83-4.9,10.6   c-0.39,1.34-0.69,2.69-0.7,4.1c-0.03,3.66,2.72,6.69,6.08,6.67c3.37-0.02,6.1-3.04,6.04-7.04   C165.3,197.45,165.3,196.88,165.19,196.33z M155.35,199.45c0.61,0.85,1.1,1.6,1.84,2.12c0.71,0.51,1.58,0.64,2.4,0.98   C156.97,203.02,155.42,201.92,155.35,199.45z"></path>
	<path class="st0" d="M155.04,228.6c-0.62-5.43-3.24-10.08-6.08-14.82c-0.91,1.65-1.76,3.11-2.53,4.61   c-1.68,3.3-3.14,6.67-3.5,10.41c-0.28,2.97,1.48,5.85,4.19,6.8C151.31,237.08,155.58,233.38,155.04,228.6z M144.98,230.64   c1.51,1.76,1.09,2.08,4.3,3.16C147.01,234.52,145.24,233.28,144.98,230.64z"></path>
	<path class="st0" d="M177.7,244.9c-2.54,4.23-4.74,8.35-5.78,12.99c-0.35,1.58-0.54,3.17-0.01,4.76c1.02,3.05,4.09,4.91,7.03,4.24   c3.14-0.71,5.26-3.96,4.78-7.37C182.97,254.19,180.43,249.61,177.7,244.9z M173.76,261.81c0.93,1.68,2.27,2.78,4.22,3.05   C175.47,265.45,173.87,264.3,173.76,261.81z"></path>
	<path class="st0" d="M121.92,244.93c-2.28,3.8-4.21,7.48-5.39,11.5c-0.45,1.55-0.76,3.12-0.65,4.75c0.19,2.78,2.39,5.29,5.05,5.74   c2.72,0.46,5.35-1.03,6.54-3.67c0.72-1.59,0.67-3.23,0.34-4.86C126.84,253.57,124.56,249.29,121.92,244.93z M118.05,261.89   c0.95,1.65,2.3,2.71,4.23,2.99C119.66,265.4,118.17,264.33,118.05,261.89z"></path>
	<path class="st0" d="M146.53,198.15c-0.12-0.47-0.22-1.01,0.15-1.45c-0.68-4.98-3.08-9.25-5.54-13.49   c-0.41-0.7-0.68-0.09-0.89,0.26c-1.91,3.16-3.59,6.44-4.71,9.97c-0.54,1.7-0.94,3.43-0.85,5.24c0.17,3.34,3.19,6.21,6.33,6.01   c3.41-0.22,6.05-3.34,5.73-6.76C146.69,198.02,146.58,198.35,146.53,198.15z M136.81,199.19c1.01,1.99,2.39,3.01,4.62,3.28   C138.64,203.16,136.96,201.97,136.81,199.19z"></path>
	<path class="st0" d="M164.77,263.77c0.92-1.65,0.96-3.41,0.62-5.19c-0.93-4.9-3.25-9.2-5.88-13.65c-2.51,4.1-4.59,8.13-5.72,12.59   c-0.31,1.23-0.43,2.48-0.34,3.75c0.19,2.67,2.27,5.08,4.85,5.63C160.85,267.44,163.43,266.17,164.77,263.77z M155.5,261.67   c1.09,1.75,2.35,3.02,4.41,3.17C157.34,265.53,155.73,264.38,155.5,261.67z"></path>
	<path class="st0" d="M140.44,244.96c-2.17,3.49-3.94,6.91-5.16,10.6c-0.62,1.86-1.05,3.76-0.89,5.75c0.21,2.63,2.21,4.97,4.76,5.57   c2.5,0.59,5.12-0.64,6.51-3.02c0.93-1.6,1.02-3.31,0.71-5.05C145.48,253.81,143.12,249.44,140.44,244.96z M136.37,261.75   c1.85,2.24,1.85,2.24,4.38,3.13C138.61,265.69,136.82,264.49,136.37,261.75z"></path>
	<path class="st0" d="M135.84,232.54c0.84-1.58,0.89-3.26,0.58-4.96c-0.91-4.95-3.26-9.29-5.9-13.77   c-2.43,3.99-4.47,7.91-5.62,12.23c-0.37,1.4-0.56,2.82-0.42,4.26c0.26,2.67,2.39,5.03,4.98,5.53   C131.97,236.32,134.56,234.97,135.84,232.54z M126.47,231.47c-0.07-0.22-0.18-0.43,0.07-0.53c0.11-0.04,0.38,0.06,0.43,0.17   c0.77,1.66,2.23,2.3,3.91,2.69C128.57,234.26,127.05,233.4,126.47,231.47z"></path>
	<path class="st0" d="M196.07,244.91c-2.5,4.18-4.68,8.24-5.75,12.81c-0.3,1.28-0.48,2.58-0.26,3.88c0.42,2.52,1.8,4.32,4.26,5.12   c2.34,0.76,4.38,0.1,6.06-1.64c1.52-1.58,1.99-3.54,1.69-5.67C201.32,254.14,198.8,249.6,196.07,244.91z M192.09,261.95   c1.07,1.55,2.38,2.72,4.34,2.94C193.78,265.35,192.55,264.53,192.09,261.95z"></path>
	<path class="st0" d="M191.05,233.89c1.57-1.76,1.92-3.84,1.55-6.08c-0.66-3.99-2.36-7.59-4.28-11.1c-0.51-0.93-0.95-1.92-1.72-2.77   c-1.67,2.64-3.09,5.32-4.23,8.13c-0.78,1.93-1.52,3.87-1.66,5.98c0.33,0.62,0.4,1.23-0.06,1.83c0.05,2.52,1.66,4.82,4.01,5.7   C186.89,236.4,189.39,235.74,191.05,233.89z M182.71,230.82c1.04,1.58,2.36,2.72,4.5,2.81   C185.05,234.68,182.94,233.33,182.71,230.82z"></path>
	<path class="st0" d="M174.36,230.89c-0.32-0.95-0.36-1.9,0.03-2.85c0,0,0,0,0,0v0c-0.67-5.23-3.27-9.63-5.93-14.28   c-0.95,1.71-1.81,3.16-2.58,4.66c-0.98,1.89-1.83,3.83-2.49,5.86c-0.56,1.74-1.03,3.5-1,5.35c0.04,3.14,2.45,5.93,5.37,6.26   C170.88,236.23,173.6,234.18,174.36,230.89z M164.6,230.62c0.92,1.84,2.33,2.84,4.24,3.17   C166.47,234.59,164.16,232.67,164.6,230.62z"></path>
	<path class="st0" d="M172.06,196.95C172.06,196.95,172.06,196.95,172.06,196.95c0.53,0.7,0.07,1.57,0.41,2.32   c0.06,0.12-0.25,0.07-0.4,0.03c-0.05,0.12-0.11,0.24-0.16,0.36c-0.01,0.05-0.03,0.1-0.07,0.15c0.08,0.18,0.16,0.35,0.24,0.53v0   c0.48-0.32,1.13,0.37,1.56-0.27c0,0,0,0,0,0c0.53-0.1,0.53-0.11,0.88,0.32c0.77,0.96,1.63,1.76,2.95,1.81   c0.02,0.03,0.04,0.05,0.07,0.07c-0.03-0.02-0.05-0.04-0.07-0.07c0.29,0.11,0.96-0.42,0.8,0.46l-0.11,0l-0.09,0.06   c0.46,0.53,0.48,0.54,0.85,0.01c0.13-0.19,0.33-0.2,0.42-0.14c0.75,0.52,1.66-0.04,2.42,0.39c1.96-1.73,2.36-3.96,1.96-6.39   c-0.81-4.88-3.09-9.16-5.54-13.37c-0.32-0.55-0.5-0.45-0.78,0.02c-2.44,4.16-4.76,8.36-5.53,13.22v0c0,0,0,0,0,0   C171.93,196.61,171.99,196.78,172.06,196.95z"></path>
	<path class="st0" d="M112.43,168.1c30.52,0,61.05,0,91.57,0c0.7,0,1.39-0.03,2.09,0.04c0.17,0.03,0.34,0.04,0.51,0.03c0,0,0,0,0,0   l0,0c-0.32-0.51-0.84-0.37-1.3-0.37c-30.7-0.01-61.4-0.01-92.09,0c-0.46,0-0.98-0.13-1.28,0.4c0,0,0,0,0,0c0,0,0,0,0,0   C112.09,168.13,112.26,168.1,112.43,168.1z"></path>
	<polygon class="st0" points="206.25,173.13 206.25,173.13 206.25,173.13  "></polygon>
	<path class="st0" d="M206.25,173.13c-0.47-0.14-0.95-0.07-1.43-0.07c-30.29,0-60.59,0-90.88,0c-0.47,0-0.96-0.1-1.42,0.1   c0.39,0.02,0.78,0.05,1.17,0.05c30.47,0,60.93,0,91.4,0C205.47,173.21,205.86,173.16,206.25,173.13z"></path>
	<path class="st0" d="M120.33,165.38c25.77,0.02,51.53,0.02,77.3,0.02c0.26,0,0.52-0.02,0.78,0c0.68,0.05,0.69-0.34,0.54-0.83l0,0   c0,0,0,0,0,0c-0.15,0.38-0.31,0.71-0.82,0.65c-0.3-0.04-0.61-0.01-0.91-0.01c-25.57,0-51.15,0-76.72-0.01   c-0.47,0-0.96,0.12-1.41-0.12C119.38,165.68,119.92,165.38,120.33,165.38z"></path>
	<path class="st0" d="M180.23,203.14c-0.47-0.05-0.85-0.14-1.28,0.29c-0.45,0.45-0.75-0.01-0.95-0.42   c-0.03-0.09-0.06-0.18-0.08-0.27c-1.92,0.22-3.29-0.48-4.08-2.15c0,0,0,0,0,0c-0.62,0.14-1.22,0.12-1.77-0.24l0,0   c1.46,4.38,6.43,5.74,9.68,2.63l0,0l0,0C181.26,203.15,180.74,203.2,180.23,203.14z"></path>
	<path class="st0" d="M235.46,97.82c-0.39,0.03-0.78,0.01-1.17,0.01c-18,0-36,0-54,0.01c-0.38,0-0.79-0.13-1.16,0.03   c-0.06,0.04-0.13,0.08-0.21,0.13c18.85,0,37.71,0,56.56,0c0.13,0,0.26,0,0.39,0c0.17,0,0.43-0.02,0.39-0.2   c-0.04-0.17-0.29-0.28-0.45-0.42C235.84,97.66,235.73,97.8,235.46,97.82z"></path>
	<path class="st0" d="M169.83,135.07c0.02-0.29,0.08-0.58,0.19-0.87c-0.02-0.23-0.05-0.47-0.07-0.7v0c0,0,0,0,0,0   C169.84,134.02,169.82,134.54,169.83,135.07z"></path>
	<path class="st0" d="M169.83,137.23c0.01-0.15,0.02-0.3,0.02-0.45C169.85,136.93,169.84,137.08,169.83,137.23z"></path>
	<path class="st0" d="M174.36,230.89c0.26-0.95,0.24-1.9,0.03-2.85C174.26,228.99,174.31,229.94,174.36,230.89z"></path>
	<path class="st0" d="M148.83,134.54c-0.01,1.03-0.03,2.06-0.04,3.09l0,0h0C149.08,136.6,148.99,135.57,148.83,134.54z"></path>
	<path class="st0" d="M171.84,199.82c0.02-0.05,0.05-0.1,0.07-0.15c0.04-0.15,0.03-0.32,0.1-0.47c0.04-0.28,0.05-0.56,0.06-0.83   c0-0.13,0-0.25,0-0.38c-0.01-0.29-0.03-0.59-0.05-0.88c-0.09-0.21-0.06-0.45-0.15-0.66C171.64,197.57,171.66,198.69,171.84,199.82z   "></path>
	<path class="st0" d="M146.61,197.88c0,0.17,0.08,0.26,0.05,0.09c0,0,0.07-0.02,0.11-0.04c-0.03-0.41-0.05-0.82-0.08-1.23   C146.51,197.08,146.61,197.48,146.61,197.88z"></path>
	<path class="st0" d="M180.71,228.04c-0.11,0.61-0.23,1.21-0.06,1.83C180.94,229.27,180.82,228.65,180.71,228.04z"></path>
	<path class="st0" d="M113.66,168.35c30.48,0.01,60.95,0.01,91.43,0c0.47,0,0.96,0.11,1.41-0.11c-31.42,0-62.84,0-94.25-0.01   C112.71,168.46,113.19,168.35,113.66,168.35z"></path>
	<path class="st0" d="M177.39,202.53c-0.18,0-0.36-0.03-0.53-0.06c0.33,0.1,0.68,0.18,1.04,0.24   C177.78,202.52,177.58,202.54,177.39,202.53z"></path>
	<path class="st0" d="M175.67,201.97c-0.37-0.24-0.71-0.53-1.04-0.85c-0.18-0.17-0.28-0.46-0.52-0.53   C174.54,201.18,175.06,201.63,175.67,201.97z"></path>
	<path class="st0" d="M174.1,200.59c-0.12-0.16-0.24-0.34-0.34-0.53c-0.01-0.01-0.08,0.01-0.12,0.01v0   c0.07,0.18,0.14,0.35,0.22,0.51C173.95,200.56,174.03,200.57,174.1,200.59z"></path>
	<path class="st0" d="M175.67,201.97c0.36,0.23,0.76,0.41,1.2,0.5C176.44,202.34,176.04,202.17,175.67,201.97z"></path>
	<path class="st0" d="M177.92,202.72c0,0.01,0,0.02,0.01,0.02c0.05-0.01,0.09-0.01,0.14-0.02c-0.06-0.01-0.11-0.02-0.16-0.03   C177.91,202.7,177.91,202.71,177.92,202.72z"></path>
	<path class="st0" d="M172.06,196.95C172.06,196.95,172.06,196.95,172.06,196.95c0,0.34,0,0.69,0,1.03c0,0.13,0,0.25,0,0.38   c0,0.31,0,0.63,0,0.94C172.26,198.52,172.25,197.74,172.06,196.95z"></path>
	<path class="st0" d="M178.26,202.67c0.04-0.63-0.49-0.25-0.73-0.39C177.75,202.45,178.15,202.31,178.26,202.67z"></path>
</g>
<circle class="st1" cx="157.1" cy="176.16" r="117.9"></circle>
</svg>