<svg xmlns="http://www.w3.org/2000/svg" xmlns:xlink="http://www.w3.org/1999/xlink" id="Layer_1" x="0px" y="0px" viewBox="0 0 300 300" style="enable-background:new 0 0 300 300;" xml:space="preserve">
<style type="text/css">
	.st0{fill:#959595;stroke:#959595;stroke-width:3;stroke-miterlimit:10;}
	.st1{fill:none;stroke:#959595;stroke-width:3;stroke-miterlimit:10;}
	.st2{fill:#959595;stroke:#959595;stroke-width:6;stroke-miterlimit:10;}
</style>
<g>
	<path class="st0" d="M106.44,102.35c-0.67-0.02-1.37,0.15-1.97-0.32c0-4.36,0-8.71,0-13.07c8.58,0,17.16,0.02,25.75-0.02   c0.95,0,1.28,0.17,1.25,1.2c-0.08,3.13-0.03,6.26-0.03,9.39c0,2.5,0,2.54-2.46,2.47c-0.96-0.03-1.25,0.19-1.25,1.21   c0.04,13.1,0.02,26.21,0.04,39.31c0,0.9-0.4,2.07,0.2,2.64c0.54,0.52,1.69,0.19,2.56,0.13c0.84-0.05,0.93,0.31,0.92,1.01   c-0.03,3.4-0.01,6.81-0.01,10.21c0,1.87,0,1.87-1.86,1.87c-1.77,0-1.81,0.01-1.24,1.75c2.02,6.08,6.26,9.67,12.6,10.38   c5.62,0.63,10.18-1.59,13.53-6.15c1.29-1.75,2.14-3.72,2.4-5.99c-0.9,0-1.68-0.04-2.46,0.01c-0.71,0.05-0.93-0.17-0.92-0.9   c0.04-3.1,0-6.19,0.03-9.29c0.01-0.94-0.43-2.18,0.21-2.73c0.55-0.46,1.75-0.2,2.66-0.15c0.79,0.04,0.97-0.29,1.02-1   c0.07-1.01,0.21-2.03,0.42-3.02c2.01-9.72,7.19-17.28,15.55-22.63c4.28-2.74,8.96-4.4,14-4.98c2.46-0.28,2.51-0.18,2.48-2.56   c-0.01-0.77,0.2-0.97,0.97-0.96c3.71,0.04,7.42,0.04,11.14,0c0.81-0.01,1.02,0.22,1.01,1.02c-0.03,5.82-0.02,11.64-0.02,17.46   c0,2.55-0.02,5.11,0.01,7.66c0.01,0.68-0.21,0.86-0.87,0.85c-3.81-0.03-7.63-0.03-11.44,0c-0.65,0-0.83-0.2-0.79-0.82   c0.05-0.75-0.03-1.5,0.02-2.24c0.06-0.76-0.23-0.95-0.94-0.8c-5.63,1.18-9.44,4.47-11.34,9.89c-0.74,2.1-0.67,2.13,1.5,2.13   c0.2,0,0.41,0.02,0.61,0c0.57-0.07,0.77,0.15,0.76,0.74c-0.02,3.88-0.02,7.76,0,11.64c0,0.53-0.15,0.74-0.69,0.71   c-0.68-0.04-1.37,0.04-2.04-0.02c-0.81-0.07-1.12,0.18-1.18,1.05c-0.13,2.07-0.57,4.1-1.15,6.09c-2,6.87-5.8,12.56-11.34,17.06   c-4.88,3.96-10.46,6.42-16.71,7.28c-0.49,0.07-1.01,0.03-1.43,0.39c-1.43,0-2.86,0-4.29,0c-0.41-0.29-0.82-0.33-1.23,0   c-0.41,0-0.82,0-1.23,0c-3.79-0.3-7.4-1.2-10.9-2.74c-4.89-2.16-9.02-5.32-12.42-9.39c-4.45-5.34-7.08-11.49-7.77-18.43   c-0.08-0.79-0.4-1.03-1.16-1.05c-0.83-0.02-1.7,0.25-2.49-0.25c0-4.36,0-8.71,0-13.07c0.6-0.47,1.3-0.3,1.97-0.32   c1.27-0.04,1.35-0.1,1.38-1.31c0.01-0.24,0-0.48,0-0.71c0-6.94,0-13.89,0-20.83c0-6.13,0-12.25,0-18.38   C107.81,102.44,107.73,102.39,106.44,102.35z M194.11,133.9c1.56-0.06,3.13-0.04,4.7-0.01c0.62,0.01,0.9-0.09,0.9-0.82   c-0.03-6.26-0.03-12.52,0-18.78c0-0.69-0.22-0.86-0.87-0.85c-1.63,0.04-3.27,0.04-4.9,0c-0.65-0.02-0.8,0.21-0.79,0.82   c0.03,3.16,0.01,6.33,0.01,9.49c0,3.06,0.03,6.13-0.02,9.19C193.12,133.74,193.36,133.93,194.11,133.9z M188.2,130.13   c1.68-0.38,1.68-0.37,1.68-2.14c0-1.56,0-3.13,0-4.69c0-1.94-0.02-3.88,0.01-5.81c0.01-0.57-0.14-0.77-0.75-0.71   c-7.45,0.67-13.93,3.54-19.28,8.75c-5.21,5.07-8.26,11.29-9.2,18.53c-0.13,0.98,0.13,1.27,1.15,1.26   c3.64-0.06,7.28-0.05,10.92-0.01c0.71,0.01,0.99-0.19,1.15-0.89C175.63,136.63,180.44,131.89,188.2,130.13z M176.39,155.14   c0.59,0,0.85-0.11,0.83-0.78c-0.04-1.67-0.04-3.34,0-5c0.02-0.66-0.25-0.78-0.83-0.78c-3.17,0.02-6.33,0.01-9.5,0.01   c-3.03,0-6.06,0.02-9.09-0.02c-0.76-0.01-1.09,0.13-1.05,0.99c0.08,1.56,0.05,3.13,0.01,4.69c-0.02,0.63,0.13,0.89,0.83,0.88   C163.86,155.11,170.13,155.12,176.39,155.14z M111.59,159.16c0.69,6.6,3.21,12.4,7.61,17.35c4.72,5.32,10.59,8.74,17.61,9.9   c11.83,1.95,21.75-1.66,29.57-10.75c4.04-4.69,6.26-10.2,6.97-16.35c0.09-0.81-0.12-0.96-0.88-0.94c-1.87,0.05-3.74,0.02-5.62,0.02   c-1.84,0-3.68,0.05-5.51-0.02c-0.82-0.04-1.11,0.24-1.26,1c-0.98,4.91-3.58,8.76-7.72,11.55c-9.94,6.68-23.82,1.6-27.1-9.91   c-0.07-0.23-0.14-0.45-0.2-0.68c-0.54-1.93-0.54-1.93-2.62-1.93c-3.37,0-6.74,0.01-10.11-0.01   C111.71,158.37,111.52,158.48,111.59,159.16z M107.72,149.36c0.04,1.67,0.04,3.34,0,5c-0.02,0.66,0.25,0.78,0.83,0.78   c3.17-0.02,6.33-0.01,9.5-0.01c3.03,0,6.06-0.02,9.09,0.02c0.76,0.01,1.09-0.13,1.05-0.99c-0.08-1.56-0.05-3.13-0.01-4.69   c0.02-0.63-0.13-0.89-0.83-0.88c-6.26,0.03-12.53,0.02-18.79,0C107.97,148.58,107.7,148.69,107.72,149.36z M124.51,103.01   c0-0.83-0.25-1.02-1.03-1c-2.11,0.06-4.22,0.04-6.33,0.05l0,0l0,0c-1.1,0-2.2,0-3.3,0c-2.44-0.11-2.44-0.11-2.44,2.28   c0,13.27,0.01,26.54-0.02,39.81c0,0.88,0.16,1.22,1.14,1.2c3.64-0.07,7.29-0.05,10.93-0.01c0.76,0.01,1.05-0.14,1.04-0.99   C124.48,130.57,124.48,116.79,124.51,103.01z M108.56,98.77c3.13-0.02,6.26-0.01,9.4-0.01c3.06,0,6.13-0.02,9.19,0.02   c0.76,0.01,1.09-0.13,1.05-0.99c-0.08-1.56-0.05-3.13-0.01-4.69c0.02-0.63-0.12-0.89-0.83-0.89c-6.26,0.03-12.53,0.02-18.79,0.01   c-0.59,0-0.85,0.11-0.84,0.78c0.04,1.67,0.04,3.34,0,5C107.71,98.65,107.97,98.77,108.56,98.77z"></path>
	<path class="st0" d="M141.66,190.25c-0.41,0-0.82,0-1.23,0C140.84,190.08,141.25,190.08,141.66,190.25z"></path>
	<path class="st1" d="M114.89,113.49c-0.8,0.01-1.05-0.21-1.04-1.03c0.04-3.47,0.01-6.94,0.01-10.4c0.4,0.42,0.33,0.95,0.33,1.45   c0.01,2.79,0,5.58,0.01,8.37c0,0.42-0.12,0.92,0.4,1.17c1.19,0.58,2.22-0.05,2.22-1.37c0.01-2.72,0-5.45,0.01-8.17   c0-0.5-0.07-1.03,0.33-1.45c0,3.06-0.01,6.12-0.01,9.18C117.13,113.49,117.14,113.46,114.89,113.49z"></path>
	<path class="st0" d="M119.54,165.67c1.67-0.68,1.68-0.69,2.45,0.91c2.17,4.46,5.36,7.97,9.67,10.45c0.74,0.42,1.49,0.82,2.24,1.21   c0.29,0.15,0.55,0.26,0.33,0.68c-0.43,0.8-0.52,1.78-1.15,2.48c-0.23-0.1-0.35-0.16-0.47-0.22c-3.42-1.53-6.36-3.69-8.91-6.44   c-2.03-2.19-3.69-4.59-4.87-7.33C118.3,166.18,118.3,166.18,119.54,165.67z"></path>
</g>
<g>
	<path class="st2" d="M244.95,95.42c-0.7-1.46-1.47-2.84-2.66-4.02c-11.55-11.52-23.09-23.05-34.58-34.63   c-1.78-1.8-3.72-2.57-6.26-2.56c-45.58,0.05-91.17,0.04-136.75,0.04c-3.32,0-2.98-0.36-2.98,3c0,78.77,0,157.53,0.01,236.3   c0,0.87-0.23,1.79,0.23,2.63c60.27,0,120.54-0.01,180.81,0.05c1.82,0,2.24-0.41,2.24-2.24   C244.95,227.79,244.95,161.61,244.95,95.42z M206.02,68.51c8.36,8.37,16.58,16.59,24.82,24.84c-0.43,0.4-1.19,0.11-1.86,0.12   c-6.97,0.03-13.95-0.01-20.92,0.03c-1.32,0.01-2.09-0.14-2.07-1.8C206.06,83.99,206.02,76.28,206.02,68.51z M234.57,288.41   c-54.02-0.05-108.05-0.05-162.07,0.01c-2.23,0-2.81-0.58-2.81-2.81c0.07-36.79,0.05-73.57,0.05-110.36c0-36.63,0-73.25,0.01-109.88   c0-3.48-0.37-3.08,3.16-3.08c40.8-0.01,81.6,0.01,122.4-0.06c2.28,0,3.01,0.47,2.98,2.89c-0.14,11.29-0.02,22.58-0.1,33.86   c-0.01,1.82,0.49,2.33,2.31,2.31c11.36-0.08,22.71,0,34.07-0.08c1.91-0.01,2.65,0.33,2.64,2.48c-0.06,60.74-0.06,121.49,0,182.23   C237.22,288.09,236.48,288.42,234.57,288.41z"></path>
	<path class="st2" d="M88.06,208.52c21.81-0.09,43.62-0.05,65.42-0.05c21.08,0,42.16,0,63.23,0c4.88,0,4.74-0.01,4.94-4.77   c0.1-2.43-0.54-3.09-3.04-3.09c-42.8,0.09-85.61,0.06-128.41,0.06c-4.89,0-4.78,0-4.93,5.02C85.2,207.89,85.79,208.53,88.06,208.52   z"></path>
	<path class="st2" d="M218.6,220.1c-42.72,0.08-85.45,0.06-128.17,0.06c-5.13,0-5.01,0-5.17,5.02c-0.07,2.22,0.55,2.83,2.8,2.82   c21.81-0.09,43.62-0.05,65.42-0.05c21.08,0,42.16,0,63.23,0c4.88,0,4.73-0.01,4.93-4.78C221.76,220.72,221.08,220.1,218.6,220.1z"></path>
	<path class="st2" d="M132.24,239.61c-13.53,0.08-27.05,0.04-40.58,0.04c-5.45,0-5.35,0-5.45,5.47c-0.04,2.03,0.71,2.39,2.51,2.36   c7.29-0.09,14.58-0.04,21.87-0.04c6.4,0,12.8,0,19.2,0c5.18,0,5.05,0,5.21-5.22C135.07,239.95,134.27,239.59,132.24,239.61z"></path>
</g>
</svg>