<svg xmlns="http://www.w3.org/2000/svg" xmlns:xlink="http://www.w3.org/1999/xlink" id="Layer_1" x="0px" y="0px" viewBox="0 0 300 300" style="enable-background:new 0 0 300 300;" xml:space="preserve">
<style type="text/css">
	.st0{fill:#FFFFFF;stroke:#959595;stroke-width:13;stroke-miterlimit:10;}
	.st1{fill:#959595;stroke:#FFFFFF;stroke-width:0.25;stroke-miterlimit:10;}
	.st2{font-family:'Arial-Black';}
	.st3{font-size:121.1903px;}
</style>
<g id="Ww9Xjr_1_">
	<g>
		<path class="st0" d="M237.75,222.53c0,12.78,0.01,25.56,0,38.34c-0.01,7.28-4.51,11.82-11.8,11.83    c-20.27,0.02-40.55-0.02-60.82,0.06c-1.88,0.01-2.11-0.65-2.11-2.25c0.05-19.76-0.01-39.51,0.09-59.27    c0.01-2.21-0.64-2.61-2.69-2.6c-12.56,0.1-25.12,0.1-37.68,0c-2.09-0.02-2.49,0.62-2.49,2.57c0.07,19.76,0.02,39.51,0.09,59.27    c0.01,1.84-0.51,2.28-2.31,2.27c-20.05-0.07-40.11-0.04-60.16-0.04c-7.88,0-12.27-4.39-12.27-12.25c0-25.63,0.02-51.27-0.04-76.9    c0-1.79,0.54-2.94,1.93-4.08c19.52-16.02,39-32.09,58.48-48.15c11.33-9.34,22.67-18.67,33.95-28.06c1.32-1.1,2.16-1.11,3.49-0.01    c19.39,16.06,38.82,32.08,58.25,48.1c11.44,9.43,22.87,18.88,34.35,28.26c1.26,1.03,1.79,2.06,1.78,3.71    C237.72,196.38,237.75,209.46,237.75,222.53z"></path>
		<path class="st0" d="M195.02,96.96c0-10.6,0.01-20.72-0.01-30.85c0-1.26-0.01-2.53,0.48-3.69c1.05-2.5,3.22-3.28,5.71-3.28    c10.06-0.02,20.13-0.04,30.19,0c4.39,0.02,6.35,2.1,6.36,6.58c0.01,21.59,0.02,43.18-0.02,64.78c0,1.43,0.34,2.4,1.5,3.36    c10.88,8.96,21.71,17.98,32.54,26.99c0.79,0.66,1.6,1.3,2.34,2.01c2.34,2.24,2.78,4.94,0.8,7.47c-3.3,4.22-6.74,8.34-10.31,12.33    c-2.38,2.66-5.29,2.63-8.2,0.21c-12.92-10.75-25.83-21.52-38.74-32.28c-23.74-19.79-47.48-39.57-71.22-59.36    c-1.13-0.94-2.35-1.79-3.36-2.84c-1.08-1.13-1.8-0.83-2.88,0.07c-21.57,18.03-43.18,36.02-64.78,54.02    c-16.13,13.44-32.25,26.89-48.39,40.32c-3.27,2.72-6.19,2.42-8.98-0.86c-2.95-3.47-5.85-6.97-8.77-10.47    c-2.95-3.54-2.81-6.32,0.71-9.27c11.92-10,23.9-19.94,35.85-29.9c25.77-21.47,51.54-42.96,77.34-64.4    c3.14-2.61,6.01-5.65,9.88-7.28c7.77-3.28,15.12-2.57,21.67,2.81c12.82,10.53,25.49,21.24,38.23,31.87    C193.5,95.76,194.07,96.2,195.02,96.96z"></path>
	</g>
</g>
<circle class="st0" cx="141.68" cy="211.75" r="69.45"></circle>
<text transform="matrix(1 0 0 1 103.2438 251.6582)" class="st1 st2 st3">$</text>
</svg>