<svg xmlns="http://www.w3.org/2000/svg" xmlns:xlink="http://www.w3.org/1999/xlink" id="Layer_1" x="0px" y="0px" viewBox="0 0 300 300" style="enable-background:new 0 0 300 300;" xml:space="preserve">
<style type="text/css">
	.st0{fill:none;stroke:#959595;stroke-miterlimit:10;}
	.st1{fill:none;stroke:#F68C28;stroke-miterlimit:10;}
	.st2{fill:none;stroke:#B62B25;stroke-miterlimit:10;}
	.st3{fill:none;stroke:#F58B28;stroke-miterlimit:10;}
	.st4{fill:none;stroke:#A3D3F1;stroke-miterlimit:10;}
	.st5{fill:url(#SVGID_1_);}
	.st6{fill:#A3D3F1;stroke:#959595;stroke-miterlimit:10;}
	.st7{fill:#F68C28;}
	.st8{font-family:'MyriadPro-Regular';}
	.st9{font-size:6.9873px;}
</style>
<polygon class="st0" points="128.67,4.21 63.26,112.84 71.39,112.84 129.62,14.19 "></polygon>
<path class="st1" d="M104.44,182.91c0,0-0.49,2.26,0,2.75c0.49,0.49,2.35,0.54,2.79,0c0.55-0.68,0-3.5,0-3.5h2.68"></path>
<rect x="63.26" y="119.44" class="st0" width="174.31" height="171.35"></rect>
<rect x="63.86" y="193.3" class="st0" width="174.31" height="6.49"></rect>
<rect x="63.26" y="112.95" class="st0" width="174.91" height="6.49"></rect>
<polygon class="st0" points="129.32,4.21 237.95,112.84 228.76,112.82 129.57,13.64 "></polygon>
<path class="st1" d="M63.93,140.91h24.94c2.32,0,4.19,1.88,4.19,4.19v1.34v46.26"></path>
<line class="st1" x1="63.86" y1="146.87" x2="92.81" y2="146.88"></line>
<path class="st1" d="M63.86,129.81l10.54,0.02c1.6,0,2.9,1.3,2.9,2.9v0.93v1.1"></path>
<ellipse class="st1" cx="77.3" cy="135.99" rx="3.99" ry="1.23"></ellipse>
<rect x="138.34" y="172.75" class="st0" width="16.54" height="20.48"></rect>
<rect x="154.89" y="172.75" class="st0" width="16.54" height="20.48"></rect>
<path class="st0" d="M168,172.75h-26.22v-23.08c0-1.44,1.16-2.6,2.6-2.6h21.02c1.44,0,2.6,1.16,2.6,2.6V172.75z"></path>
<path class="st2" d="M161.18,169.05"></path>
<path class="st3" d="M161.18,172.62h-12.59c-0.82,0-1.49-0.67-1.49-1.49v-0.59c0-0.82,0.67-1.49,1.49-1.49h12.59  c0.82,0,1.49,0.67,1.49,1.49v0.59C162.67,171.95,162,172.62,161.18,172.62z"></path>
<path class="st1" d="M154.5,168.91c0,0-0.3-3.31-0.02-4.26c0.57-1.9,3.33-3.4,4.02,0.9"></path>
<g>
	<g>
		<path class="st1" d="M233.12,174.36H184.8c-1.05,0-1.9-0.85-1.9-1.9v-1.03c0-1.05,0.85-1.9,1.9-1.9h48.32c1.05,0,1.9,0.85,1.9,1.9    v1.03C235.03,173.51,234.17,174.36,233.12,174.36z"></path>
		<path class="st1" d="M186.81,174.73v4.3c0,4.32,2.72,8,6.53,9.45l-2.19,4.38l4.52-2.26l1.45-1.45h22.55l1.45,1.45l4.52,2.26    l-2.03-4.06c4.32-1.15,7.51-5.08,7.51-9.77v-4.3H186.81z"></path>
	</g>
	<path class="st1" d="M229.3,169.23c0,0,0.35-3.85,0.02-4.96c-0.66-2.21-3.88-3.96-4.68,1.05"></path>
</g>
<g>
	<path class="st0" d="M123.88,176.85h-14.31c-0.36,0-0.65-0.29-0.65-0.65v-0.21c0-0.36,0.29-0.65,0.65-0.65h14.31   c0.36,0,0.65,0.29,0.65,0.65v0.21C124.53,176.56,124.24,176.85,123.88,176.85z"></path>
	<path class="st0" d="M121.61,185.15c1.44-0.77,2.5-3.48,2.5-6.6v-2.86h-14.75v2.86c0,2.88,1.06,5.63,2.33,6.6"></path>
	<line class="st0" x1="111.52" y1="185.15" x2="121.74" y2="185.14"></line>
	<rect x="114.57" y="185.15" class="st0" width="4.74" height="7.67"></rect>
	<path class="st0" d="M121.57,174.76h-9.67c-1.05,0-1.9-0.85-1.9-1.9v-8.46c0-1.05,0.85-1.91,1.91-1.91h9.67   c1.05,0,1.9,0.85,1.9,1.9l0,8.46C123.47,173.91,122.62,174.76,121.57,174.76z"></path>
</g>
<g>
	<path class="st1" d="M104.53,182.68h-0.11c-0.2,0-0.36-0.16-0.36-0.36v-3.1c0-0.03,0.03-0.06,0.06-0.06h0.65   c0.03,0,0.06,0.03,0.06,0.06v3.16C104.83,182.54,104.69,182.68,104.53,182.68z"></path>
	<path class="st1" d="M106.6,174.49c0-0.62-0.57-1.12-1.27-1.12c-0.04,0-0.09,0-0.13,0.01c-0.02,0-0.04-0.01-0.06-0.01h-1.36   c-0.18,0-0.33,0.15-0.33,0.33v5.12c0,0.18,0.15,0.33,0.33,0.33h1.36c0.18,0,0.33-0.15,0.33-0.33v-3.22   C106.11,175.54,106.6,175.06,106.6,174.49z"></path>
	<polygon class="st1" points="102.34,176.12 103.45,175.29 103.45,173.82 101.8,175.56  "></polygon>
</g>
<path class="st0" d="M208.96,159.91H182.9V125.1h26.06c0,5.4,0,10.81,0,16.21C208.96,147.51,208.96,153.71,208.96,159.91z"></path>
<line class="st0" x1="182.9" y1="147.89" x2="208.96" y2="147.89"></line>
<rect x="63.26" y="290.51" class="st0" width="174.31" height="6.49"></rect>
<g>
	<rect x="194.17" y="230.73" class="st0" width="16.44" height="39.85"></rect>
	<rect x="210.61" y="230.73" class="st0" width="16.44" height="39.85"></rect>
	<rect x="194.17" y="270.58" class="st0" width="32.88" height="19.93"></rect>
	<path class="st0" d="M203.24,257.17h-1.29c-1.65,0-2.98-1.34-2.98-2.98v-4.11c0-1.65,1.34-2.98,2.98-2.98h1.29   c1.65,0,2.98,1.34,2.98,2.98v4.11C206.23,255.83,204.89,257.17,203.24,257.17z"></path>
	<path class="st0" d="M215.07,275.4h-9.1c-0.4,0-0.72-0.32-0.72-0.72v-0.24c0-0.4,0.32-0.72,0.72-0.72h9.1   c0.4,0,0.72,0.32,0.72,0.72v0.24C215.79,275.08,215.47,275.4,215.07,275.4z"></path>
</g>
<rect x="162.42" y="258.88" class="st0" width="24" height="6.43"></rect>
<rect x="162.42" y="265.47" class="st0" width="24" height="25.33"></rect>
<path class="st0" d="M181.76,283.02h-14.84c-0.93,0-1.69-0.75-1.69-1.69v-10.87c0-0.93,0.75-1.69,1.69-1.69h14.84  c0.93,0,1.69,0.75,1.69,1.69v10.87C183.45,282.26,182.69,283.02,181.76,283.02z"></path>
<line class="st0" x1="165.54" y1="270.44" x2="183.45" y2="270.44"></line>
<circle class="st0" cx="166.35" cy="261.99" r="1.41"></circle>
<circle class="st0" cx="171.93" cy="261.99" r="1.41"></circle>
<circle class="st0" cx="177.73" cy="261.99" r="1.41"></circle>
<circle class="st0" cx="182.8" cy="261.99" r="1.41"></circle>
<polygon class="st0" points="154.51,290.19 104.3,290.19 104.3,265.17 104.3,258.83 154.51,258.83 "></polygon>
<line class="st0" x1="154.51" y1="265.58" x2="104.3" y2="265.17"></line>
<line class="st0" x1="137.78" y1="258.83" x2="137.78" y2="290.19"></line>
<line class="st0" x1="120.16" y1="265.53" x2="120.16" y2="290.19"></line>
<path class="st1" d="M121.8,247.09c1.87,0,3.74,0,5.61,0c0.16,0.01,0.31,0.06,0.44,0.17c0.01,0.01,0.02,0.01,0.03,0.02  c0.08,0.07,0.15,0.14,0.21,0.23c0.21,0.32,0.23,0.66,0.06,1c-0.18,0.35-0.47,0.54-0.87,0.55c-0.26,0.01-0.52,0-0.78,0  c-0.13,0-0.27,0.01-0.4,0c-0.5,0.01-1,0-1.51,0c-0.13,0-0.26,0-0.39,0c-0.03,0-0.06,0-0.08,0c-0.24,0-0.35,0.12-0.36,0.35  c0,0.03,0,0.06,0,0.08c0,0.13,0,0.26,0,0.38c0,0.16,0,0.33,0,0.49c0,0.11,0,0.11,0.11,0.1c0.3-0.04,0.6-0.08,0.9-0.12  c0.16-0.01,0.32-0.04,0.48-0.06c0.41-0.05,0.82-0.11,1.22-0.16c0.18-0.02,0.35-0.05,0.53-0.07c0.16-0.02,0.32-0.04,0.48-0.06  c0.31-0.04,0.63-0.08,0.94-0.12c0.21-0.02,0.41,0.01,0.61,0.07c0.01,0,0.02,0.01,0.03,0.01c0.1,0.04,0.2,0.08,0.29,0.13  c0.32,0.19,0.56,0.45,0.7,0.79c0.07,0.13,0.08,0.28,0.1,0.43c0,0.3,0,0.6,0,0.9c-0.03,0.05-0.08,0.06-0.12,0.08  c-0.45,0.13-0.9,0.27-1.35,0.4c-0.2,0.06-0.41,0.12-0.61,0.18c-0.39,0.11-0.78,0.23-1.18,0.35c-0.33,0.1-0.65,0.19-0.98,0.3  c-0.21,0.06-0.42,0.12-0.63,0.19c-0.3,0.09-0.59,0.17-0.89,0.27c-0.38,0.13-0.63,0.45-0.64,0.86c-0.01,0.15,0,0.31,0,0.46  c0,0.13,0,0.26,0,0.39c0,0.11,0,0.22,0,0.33c0,0.07,0.03,0.1,0.1,0.1c0.13,0,0.26,0,0.38,0c0.12,0,0.15,0.03,0.15,0.15  c0,0.1,0,0.19,0,0.29c0.01,0.14,0,0.28,0,0.41c0,0.32,0,0.64,0,0.96c0,0.15-0.01,0.16-0.16,0.16c-1.65,0-3.3,0-4.94,0  c-0.13,0-0.13,0-0.13-0.12c0-0.6,0-1.21,0-1.81c0.07-0.07,0.16-0.03,0.24-0.04c0.08,0,0.17,0,0.25,0c0.11,0,0.12-0.01,0.12-0.12  c0-0.09,0-0.17,0-0.26c0-0.13,0-0.25,0-0.38c0-0.02,0-0.04,0-0.06c0-0.49-0.01-0.99,0-1.48c-0.01-0.13,0-0.26,0-0.39  c0-0.02,0-0.04,0-0.06c0-0.49,0-0.99,0-1.48c-0.01-0.14,0-0.28,0-0.41c0-0.5-0.01-1.01,0-1.51c-0.01-0.13,0-0.25,0-0.38  c0-0.02,0-0.04,0-0.05c-0.02-0.43,0.05-0.85,0.26-1.23c0.32-0.59,0.8-0.98,1.44-1.15C121.6,247.11,121.7,247.12,121.8,247.09z"></path>
<path class="st2" d="M119.8,255.97"></path>
<line class="st1" x1="123.87" y1="256.09" x2="119.71" y2="256.09"></line>
<line class="st1" x1="123.78" y1="250.46" x2="119.8" y2="251.17"></line>
<g>
	<polygon class="st0" points="126,242.38 100.38,242.38 74.82,242.38 74.82,214.34 100.38,214.34 126,214.34  "></polygon>
	<line class="st0" x1="74.82" y1="228.36" x2="126" y2="228.36"></line>
	<line class="st0" x1="100.53" y1="214.34" x2="100.53" y2="242.38"></line>
</g>
<path class="st0" d="M137.25,52.54h-6.77h-6.77c-1.9,0-3.45-1.54-3.45-3.45V35.55c0-1.9,1.54-3.45,3.45-3.45h13.54  c1.9,0,3.45,1.54,3.45,3.45v13.54C140.7,50.99,139.16,52.54,137.25,52.54z"></path>
<polyline class="st4" points="157,78.24 129.41,78.24 129.41,53.1 "></polyline>
<polyline class="st4" points="232.94,107.89 157,107.89 157,78.24 "></polyline>
<path class="st0" d="M194.8,75.89"></path>
<polyline class="st1" points="200.78,75.89 172.65,75.89 172.65,60.55 162.67,60.55 "></polyline>
<linearGradient id="SVGID_1_" gradientUnits="userSpaceOnUse" x1="153.5067" y1="79.7134" x2="153.5067" y2="54.8966">
	<stop offset="0.0758" style="stop-color:#A3D3F1"></stop>
	<stop offset="0.1258" style="stop-color:#A4D2EE"></stop>
	<stop offset="0.1591" style="stop-color:#A8CFE5"></stop>
	<stop offset="0.1876" style="stop-color:#AECAD6"></stop>
	<stop offset="0.2133" style="stop-color:#B7C2C1"></stop>
	<stop offset="0.2372" style="stop-color:#C2B8A5"></stop>
	<stop offset="0.2598" style="stop-color:#D0AC83"></stop>
	<stop offset="0.2813" style="stop-color:#E19E5B"></stop>
	<stop offset="0.3014" style="stop-color:#F48E2D"></stop>
	<stop offset="0.3036" style="stop-color:#F68C28"></stop>
</linearGradient>
<circle class="st5" cx="153.51" cy="67.3" r="12.41"></circle>
<path class="st6" d="M120.27,40.05v9.6c0,1.9,1.54,3.45,3.45,3.45h6.77h6.77c1.9,0,3.45-1.54,3.45-3.45v-9.6H120.27z"></path>
<polygon class="st1" points="204.01,72.91 235.9,104.8 232.79,107.89 200.78,75.89 "></polygon>
<g>
	<path class="st1" d="M213.93,15.12c-7.19,0.25-12.63,6.23-12.53,13.04c-0.06,6.92,5.61,13.03,13.14,12.98   c7.21-0.06,12.91-5.96,12.86-13.2C227.34,20.91,221.46,14.87,213.93,15.12z"></path>
	<path class="st1" d="M190.3,15.69c2.53,1.46,5.06,2.92,7.59,4.38c0.2,0.12,0.4,0.24,0.66,0.22c0.44-0.02,0.74-0.23,0.85-0.66   c0.12-0.46-0.07-0.79-0.47-1.02c-2.6-1.5-5.19-3.01-7.79-4.5c-0.53-0.31-1.05-0.16-1.31,0.31   C189.58,14.88,189.75,15.37,190.3,15.69z"></path>
	<path class="st1" d="M198.4,36.76c-2.6,1.49-5.2,2.99-7.79,4.5c-0.51,0.3-0.64,0.78-0.39,1.24c0.25,0.45,0.77,0.59,1.27,0.31   c2.6-1.49,5.2-2.99,7.79-4.49c0.32-0.19,0.53-0.45,0.52-0.85C199.79,36.76,199.07,36.38,198.4,36.76z"></path>
	<path class="st1" d="M223.16,13.16c0.39,0.02,0.63-0.26,0.83-0.62c1.02-1.77,2.04-3.54,3.06-5.32c0.47-0.81,0.95-1.61,1.39-2.43   c0.26-0.49,0.1-0.97-0.33-1.21c-0.44-0.24-0.92-0.1-1.21,0.34c-0.06,0.1-0.12,0.2-0.18,0.3c-1.1,1.91-2.2,3.81-3.3,5.72   c-0.36,0.62-0.74,1.24-1.07,1.88C222,12.49,222.38,13.14,223.16,13.16z"></path>
	<path class="st1" d="M238.69,40.69c-0.12-0.09-0.27-0.16-0.4-0.24c-2.45-1.41-4.89-2.82-7.34-4.24c-0.29-0.17-0.58-0.33-0.93-0.23   c-0.35,0.1-0.59,0.31-0.65,0.67c-0.08,0.49,0.15,0.81,0.56,1.05c2,1.14,3.99,2.29,5.98,3.44c0.61,0.35,1.2,0.72,1.83,1.04   c0.63,0.33,1.33-0.11,1.32-0.8C239.04,41.1,238.92,40.86,238.69,40.69z"></path>
	<path class="st1" d="M204.21,13.03c0.29,0.5,0.79,0.65,1.24,0.41c0.47-0.25,0.61-0.78,0.31-1.31c-1.49-2.6-3-5.19-4.5-7.79   c-0.18-0.32-0.45-0.47-0.73-0.5c-0.81,0-1.19,0.73-0.78,1.44C201.22,7.87,202.71,10.45,204.21,13.03z"></path>
	<path class="st1" d="M224.64,43.31c-0.33-0.57-0.84-0.76-1.31-0.5c-0.47,0.26-0.58,0.81-0.26,1.37c0.94,1.64,1.89,3.27,2.83,4.91   c0.54,0.93,1.07,1.86,1.6,2.78c0.24,0.42,0.59,0.63,1.08,0.49c0.43-0.12,0.62-0.45,0.65-0.82c0-0.33-0.15-0.54-0.28-0.76   C227.52,48.3,226.08,45.81,224.64,43.31z"></path>
	<path class="st1" d="M229.85,19.66c0.29-0.02,0.52-0.16,0.76-0.29c2.48-1.43,4.95-2.86,7.43-4.29c0.6-0.34,0.79-0.87,0.51-1.35   c-0.27-0.46-0.79-0.54-1.38-0.2c-1.71,0.98-3.41,1.96-5.11,2.94c-0.88,0.5-1.75,1.01-2.63,1.52c-0.42,0.24-0.52,0.63-0.41,1.06   C229.13,19.45,229.46,19.61,229.85,19.66z"></path>
	<path class="st1" d="M206.11,43.19c-0.47-0.25-0.98-0.06-1.31,0.5c-0.74,1.28-1.48,2.56-2.22,3.84c-0.73,1.26-1.47,2.52-2.18,3.8   c-0.4,0.72-0.05,1.43,0.69,1.44c0.39,0.01,0.65-0.19,0.84-0.52c1.48-2.56,2.96-5.12,4.44-7.69C206.69,44,206.58,43.44,206.11,43.19   z"></path>
	<path class="st1" d="M214.78,45.32c-0.5,0-0.89,0.35-0.89,0.88c0,3.16,0.01,6.33,0.01,9.49c-0.01,0.17,0.04,0.3,0.22,0.35   c0.87,0.4,1.52,0.13,1.53-0.68c0.02-3.05,0.01-6.09,0-9.14C215.65,45.66,215.29,45.32,214.78,45.32z"></path>
	<path class="st1" d="M241.43,26.85c-2.92,0-5.85,0-8.77,0c-0.68,0-1.06,0.32-1.08,0.88c-0.01,0.57,0.36,0.89,1.04,0.9   c1.46,0.01,2.92,0,4.39,0c0,0,0,0,0,0c1.48,0,2.96,0,4.45,0c0.7,0,1.05-0.31,1.04-0.89C242.49,27.17,242.12,26.85,241.43,26.85z"></path>
	<path class="st1" d="M214.31,10.89c0.47-0.17,0.62-0.55,0.62-1.02c-0.01-1.47,0-2.93,0-4.4c0-1.48,0.01-2.97,0-4.45   c-0.01-0.62-0.37-1.01-0.9-1.01c-0.52,0-0.88,0.36-0.88,0.96c-0.01,3.01-0.01,6.02,0,9.03C213.14,10.69,213.69,11.1,214.31,10.89z"></path>
	<path class="st1" d="M196.04,29.41c0.75,0,1.18-0.34,1.18-0.92c0-0.54-0.43-0.87-1.15-0.88c-2.87-0.01-5.73-0.01-8.6-0.01   c-0.16,0-0.31,0-0.47,0.03c-0.47,0.09-0.71,0.37-0.72,0.85c-0.01,0.58,0.35,0.91,1.04,0.91c1.46,0.01,2.93,0,4.39,0   C193.16,29.41,194.6,29.41,196.04,29.41z"></path>
</g>
<text transform="matrix(1 0 0 1 225.3945 93.0659)" class="st7 st8 st9">Coletor</text>
<text transform="matrix(1 0 0 1 145.4512 53.1011)" class="st7 st8 st9">Boiler</text>
</svg>