<svg xmlns="http://www.w3.org/2000/svg" xmlns:xlink="http://www.w3.org/1999/xlink" id="Layer_1" x="0px" y="0px" viewBox="0 0 300 300" style="enable-background:new 0 0 300 300;" xml:space="preserve">
<style type="text/css">
	.st0{fill:#FFFFFF;stroke:#959595;stroke-miterlimit:10;}
	.st1{fill:none;stroke:#959595;stroke-miterlimit:10;}
	.st2{fill:#A3D3F1;}
	.st3{fill:none;stroke:#231F20;stroke-miterlimit:10;}
	.st4{fill:none;stroke:#F68C28;stroke-miterlimit:10;}
	.st5{fill:none;stroke:#A3D3F1;stroke-miterlimit:10;}
	.st6{fill:#F68C28;}
	.st7{font-family:'MyriadPro-Regular';}
	.st8{font-size:7.6771px;}
</style>
<line class="st0" x1="16.92" y1="117.01" x2="16.92" y2="194.46"></line>
<polyline class="st1" points="220.88,208.24 242.3,208.22 242.08,130.78 "></polyline>
<path class="st1" d="M221.44,208.24"></path>
<line class="st1" x1="123.56" y1="208.37" x2="175.31" y2="208.3"></line>
<line class="st1" x1="51.75" y1="208.46" x2="123.56" y2="208.37"></line>
<path class="st0" d="M85.55,65.78"></path>
<path class="st1" d="M273.81,291H46.56c-6.8,0-8.48-1.73-8.48-8.7l54.59-54.56h136.68l50.71,54.47  C282.07,286.16,283.15,291,273.81,291z"></path>
<polygon class="st2" points="254.8,278.34 63.92,278.34 105.39,229.89 219.65,229.89 "></polygon>
<path class="st1" d="M67.39,249.46c0.02-0.19,0.17-1.86,1.55-2.69c0.21-0.13,1.22-0.7,2.24-0.32c0.94,0.36,1.37,1.34,1.55,1.74  c1.37,3.14,0.31,18.24,0.23,19.26"></path>
<path class="st1" d="M76.7,239.26c0.02-0.19,0.17-1.86,1.55-2.69c0.21-0.13,1.22-0.7,2.24-0.32c0.94,0.36,1.37,1.34,1.55,1.74  c1.73,3.96-0.05,23.18,0.23,19.26"></path>
<path class="st3" d="M83.26,257.53"></path>
<path class="st3" d="M74.72,267.45"></path>
<path class="st1" d="M161.51,176.89c0,7.86-0.04,15.72,0.03,23.58c0.01,1.51-0.26,2.09-1.91,2.07c-8.26-0.09-16.52-0.08-24.78-0.01  c-1.35,0.01-1.77-0.3-1.76-1.75c0.05-15.99,0.05-31.99,0-47.98c0-1.35,0.21-1.84,1.68-1.83c8.39,0.08,16.78,0.07,25.17,0  c1.37-0.01,1.6,0.46,1.59,1.72C161.48,160.76,161.51,168.82,161.51,176.89z"></path>
<path class="st1" d="M8.57,125.76c-3.96-3.59-3.96-3.59-0.39-7.26c13.37-13.71,26.74-27.41,40.1-41.14  c5.51-5.66,11.01-11.33,16.45-17.07c0.95-1,1.44-1.08,2.44-0.04c19.63,20.23,39.29,40.43,58.98,60.6c0.84,0.86,1.01,1.34,0.04,2.18  c-0.9,0.78-1.63,1.77-2.65,2.9c-0.6-0.69-1.04-1.24-1.53-1.74c-18.13-18.6-36.28-37.19-54.37-55.84c-1.37-1.41-2.09-1.31-3.4,0.04  c-18,18.55-36.06,37.04-54.09,55.55C9.59,124.53,9.09,125.17,8.57,125.76z"></path>
<path class="st1" d="M45.41,212.07c-1.99-0.8-3.73-0.4-5.43,0.56c-0.42,0.24-1.09,0.32-1.54,0.16c-2.14-0.78-4.08,0.11-6.1,0.57  c-1.01,0.23-2.12,0.31-3.14,0.17c-2.58-0.34-5.12-1.07-7.75-0.21c-0.55,0.18-1.33-0.07-1.9-0.34c-1.48-0.72-2.96-0.93-4.6-0.65  c-2.23,0.39-4.2-0.29-5.7-2.06c-0.58-0.68-1.29-0.88-2.04-1.12c-2.61-0.81-3.77-2.94-2.95-5.42c0.78-2.35,3.72-3.75,5.96-2.82  c0.43,0.18,0.82,0.44,1.25,0.58c0.71,0.24,0.97-0.4,0.68-0.74c-1.7-2.02-0.47-3.57,0.82-4.9c1.46-1.5,3.41-2.03,5.25-0.88  c1.38,0.87,1.94,0.64,2.7-0.72c0.86-1.55,2.32-2.13,4.08-1.58c0.84,0.26,1.6,0.24,2.45-0.23c3.07-1.68,4.77-1.29,6.99,1.46  c0.47,0.57,0.9,0.78,1.48,0.27c1.07-0.93,2.13-0.97,3.17,0.01c0.39,0.36,0.86,0.27,1.3,0.39c0.44,0.12,1.26,0.23,1.27,0.38  c0.16,3.29,4.39,1.68,5.01,4.39c0.04,0.18,0.56,0.29,0.87,0.36c1.83,0.41,2.57,1.55,2.08,3.39c-0.23,0.89-0.13,1.25,0.82,1.61  c1.66,0.63,2.42,2.66,1.3,3.72C49.95,210.17,47.77,211.38,45.41,212.07z"></path>
<path class="st1" d="M217.37,209.35c-1.36-0.07-2.59,0.18-3.7,1.09c-1.6,1.32-3.36,1.47-5.13,0.32c-0.81-0.52-1.13-0.8-1.78,0.49  c-0.67,1.35-2.52,1.37-3.95,1.06c-1.14-0.25-2.16-0.45-3.21,0.18c-0.21,0.13-0.54,0.23-0.76,0.16c-3.49-1.1-7.31,0.44-10.72-1.49  c-1-0.57-2.23-0.14-3.3,0.12c-2.2,0.53-4.18,0-6.06-1.09c-0.69-0.4-1.36-0.79-2.1-1.09c-2.79-1.14-3.35-3.7-1.03-5.64  c1.39-1.16,2.7-2.63,4.61-3.05c0.65-0.14,0.67-0.78,0.85-1.26c1.23-3.43,2.95-4.4,6.16-3.24c0.86,0.31,1.3,0.07,1.9-0.46  c3.26-2.83,7.45-3.11,10.96-0.7c0.8,0.55,1.4,0.68,2.32,0.25c2.99-1.37,4.72-0.87,6.64,1.82c0.54,0.76,0.94,0.99,1.93,0.64  c2.84-1,4.21-0.22,5.17,2.82c0.27,0.86,0.65,1.1,1.5,1.18c1.32,0.12,2.61,0.54,3.38,1.8c0.82,1.34,1.1,2.81,0.36,4.23  C220.58,209.12,218.99,209.37,217.37,209.35z"></path>
<path class="st1" d="M146.65,207.55c-5.55,0-11.1-0.05-16.65,0.04c-1.45,0.02-1.63-0.6-1.56-1.8c0.06-1.08-0.23-2.08,1.51-2.07  c11.36,0.07,22.73,0.07,34.09,0c1.75-0.01,1.23,1.1,1.29,2c0.06,1.04,0.19,1.91-1.44,1.88C158.15,207.47,152.4,207.55,146.65,207.55  z"></path>
<path class="st1" d="M65.83,116.98c-3.96,0-7.92-0.05-11.87,0.02c-1.46,0.03-2.13-0.31-2.11-2.02c0.09-6.77,0.06-13.53,0.01-20.3  c-0.01-1.39,0.42-1.92,1.81-1.91c8.25,0.04,16.5,0.04,24.74,0c1.18,0,1.63,0.37,1.62,1.63c-0.05,6.97-0.07,13.94,0.01,20.91  c0.02,1.48-0.6,1.68-1.76,1.67C74.14,116.97,69.98,116.98,65.83,116.98z"></path>
<path class="st1" d="M201.11,179.89c-7.47,0-14.93-0.04-22.4,0.03c-1.39,0.01-1.78-0.41-1.78-1.83c0.05-11.79,0.05-23.58,0-35.37  c-0.01-1.51,0.56-1.8,1.86-1.8c14.8,0.03,29.6,0.04,44.4-0.01c1.56,0,2,0.5,1.99,2.1c-0.07,11.65-0.06,23.31,0,34.97  c0.01,1.51-0.38,1.96-1.88,1.94C215.91,179.84,208.51,179.89,201.11,179.89z"></path>
<path class="st1" d="M138.3,180.31c-1.43,0.02-2.67-1.22-2.56-2.7c0.11-1.54,0.98-2.53,2.51-2.52c1.48,0,2.45,0.82,2.51,2.46  C140.82,179.12,139.78,180.29,138.3,180.31z"></path>
<path class="st1" d="M66.13,141.13c10.11,0,20.22,0.03,30.33-0.03c1.41-0.01,1.88,0.24,1.87,1.84c-0.08,11.72-0.07,23.45-0.01,35.18  c0.01,1.46-0.39,1.75-1.75,1.75c-20.42-0.05-40.84-0.05-61.26,0c-1.33,0-1.77-0.24-1.76-1.73c0.07-11.79,0.06-23.59,0-35.38  c-0.01-1.36,0.37-1.65,1.64-1.65C45.52,141.15,55.83,141.13,66.13,141.13z"></path>
<path class="st1" d="M75.83,160.5c0,4.74-0.04,9.48,0.03,14.22c0.01,1.14-0.27,1.49-1.41,1.47c-5.61-0.06-11.22-0.05-16.83-0.01  c-1.04,0.01-1.48-0.17-1.47-1.4c0.05-9.55,0.04-19.09,0.01-28.64c0-1.03,0.22-1.39,1.29-1.38c5.68,0.06,11.35,0.06,17.03,0  c1.19-0.01,1.39,0.43,1.38,1.52C75.8,151.02,75.83,155.76,75.83,160.5z"></path>
<path class="st1" d="M37.17,160.5c0-4.67,0.03-9.34-0.02-14.01c-0.01-1.2,0.13-1.77,1.55-1.74c4.88,0.1,9.77,0.09,14.65,0.01  c1.3-0.02,1.65,0.35,1.64,1.68c-0.06,9.34-0.05,18.68,0,28.03c0.01,1.26-0.22,1.75-1.59,1.72c-4.95-0.09-9.9-0.07-14.85-0.01  c-1.14,0.01-1.42-0.34-1.4-1.47C37.21,169.98,37.17,165.24,37.17,160.5z"></path>
<path class="st1" d="M94.73,160.51c0,4.74-0.04,9.48,0.03,14.22c0.01,1.14-0.29,1.47-1.41,1.46c-4.95-0.06-9.9-0.05-14.85,0  c-1.06,0.01-1.47-0.2-1.46-1.41c0.05-9.54,0.04-19.09,0.01-28.63c0-1.06,0.28-1.37,1.32-1.36c5.02,0.05,10.03,0.07,15.05-0.01  c1.23-0.02,1.36,0.49,1.35,1.53C94.7,151.03,94.73,155.77,94.73,160.51z"></path>
<path class="st1" d="M201.61,160.28c0-4.27,0.04-8.54-0.03-12.81c-0.02-1.21,0.26-1.64,1.53-1.63c5.22,0.07,10.44,0.06,15.66,0.01  c1.14-0.01,1.63,0.21,1.62,1.55c-0.06,8.74-0.05,17.49-0.01,26.23c0.01,1.09-0.32,1.37-1.35,1.36c-5.35-0.04-10.71-0.06-16.06,0.01  c-1.17,0.01-1.41-0.39-1.4-1.5C201.65,169.1,201.61,164.69,201.61,160.28z"></path>
<path class="st1" d="M200.37,160.61c0,4.27-0.04,8.53,0.03,12.8c0.02,1.21-0.24,1.62-1.5,1.6c-5.22-0.08-10.43-0.08-15.65,0  c-1.28,0.02-1.5-0.42-1.49-1.61c0.05-8.6,0.05-17.2,0-25.8c-0.01-1.25,0.22-1.78,1.6-1.76c5.15,0.08,10.3,0.09,15.45,0  c1.4-0.02,1.61,0.53,1.59,1.77C200.34,151.94,200.37,156.28,200.37,160.61z"></path>
<polygon class="st4" points="225.33,116.55 137.3,116.55 126.85,92.73 213.21,92.73 "></polygon>
<line class="st0" x1="114.44" y1="116.43" x2="114.44" y2="207.9"></line>
<polyline class="st1" points="78.84,72.45 217.67,73.9 253.26,130.78 253.26,130.78 114.1,129.99 "></polyline>
<line class="st0" x1="65.59" y1="92.73" x2="65.83" y2="116.98"></line>
<line class="st0" x1="52.28" y1="104.89" x2="79.99" y2="104.86"></line>
<polyline class="st5" points="259.9,232.52 259.9,238.56 210.99,238.56 "></polyline>
<path class="st5" d="M260.26,233.01"></path>
<path class="st5" d="M259.9,215.69"></path>
<polyline class="st5" points="248.38,193.11 248.41,207.27 259.9,207.59 259.9,213.87 "></polyline>
<path class="st5" d="M248.36,190.68"></path>
<path class="st5" d="M248.34,182.09"></path>
<polyline class="st5" points="225.33,116.55 246.76,116.43 257.79,133.58 248.23,133.49 248.34,182.09 "></polyline>
<path class="st4" d="M264.99,233.01h-10.17c-2.42,0-4.38-1.96-4.38-4.38v-10.66c0-2.42,1.96-4.38,4.38-4.38h10.17  c2.42,0,4.38,1.96,4.38,4.38v10.66C269.37,231.05,267.41,233.01,264.99,233.01z"></path>
<polyline class="st4" points="128.43,92.73 119.84,92.73 134.05,126.68 235.45,126.93 235.45,205.66 229.79,205.66 230.1,216.77   195.78,216.77 196.09,229.89 "></polyline>
<path class="st4" d="M251.12,193.14h-4.45c-0.85,0-1.55-0.69-1.55-1.55v-8.11c0-0.85,0.69-1.55,1.55-1.55h6v9.66  C252.67,192.45,251.98,193.14,251.12,193.14z"></path>
<text transform="matrix(0.9749 0 0 1 271.6963 227.7334)" class="st6 st7 st8">Bomba</text>
<text transform="matrix(0.9749 0 0 1 255.3721 187.5371)"><tspan x="0" y="0" class="st6 st7 st8">Válvula </tspan><tspan x="0" y="6.4" class="st6 st7 st8">Retenção</tspan></text>
<g>
	<path class="st4" d="M199.98,19.09c-6.53,0.23-11.47,5.81-11.39,12.15c-0.05,6.45,5.1,12.15,11.93,12.09   c6.55-0.05,11.73-5.55,11.68-12.3C212.16,24.49,206.82,18.85,199.98,19.09z"></path>
	<path class="st4" d="M178.51,19.62c2.3,1.36,4.6,2.72,6.9,4.08c0.18,0.11,0.37,0.23,0.6,0.21c0.4-0.02,0.67-0.21,0.77-0.61   c0.11-0.43-0.06-0.74-0.42-0.95c-2.36-1.4-4.72-2.81-7.08-4.2c-0.48-0.29-0.95-0.15-1.19,0.29   C177.86,18.87,178.02,19.32,178.51,19.62z"></path>
	<path class="st4" d="M185.87,39.26c-2.36,1.39-4.72,2.79-7.07,4.19c-0.47,0.28-0.59,0.73-0.35,1.16c0.23,0.42,0.7,0.55,1.15,0.29   c2.36-1.39,4.72-2.79,7.08-4.19c0.29-0.17,0.48-0.42,0.47-0.79C187.14,39.26,186.48,38.9,185.87,39.26z"></path>
	<path class="st4" d="M208.36,17.26c0.35,0.02,0.57-0.24,0.76-0.58c0.92-1.65,1.85-3.3,2.78-4.95c0.42-0.75,0.86-1.5,1.26-2.27   c0.24-0.45,0.09-0.91-0.3-1.12c-0.4-0.22-0.83-0.1-1.1,0.32c-0.06,0.09-0.11,0.19-0.16,0.28c-1,1.78-2,3.55-3,5.33   c-0.33,0.58-0.67,1.15-0.97,1.75C207.31,16.64,207.65,17.25,208.36,17.26z"></path>
	<path class="st4" d="M222.47,42.92c-0.11-0.09-0.24-0.15-0.36-0.22c-2.22-1.32-4.45-2.63-6.67-3.95c-0.26-0.16-0.53-0.31-0.85-0.22   c-0.32,0.09-0.53,0.29-0.59,0.63c-0.08,0.46,0.13,0.75,0.51,0.98c1.81,1.06,3.62,2.14,5.43,3.21c0.55,0.33,1.09,0.67,1.66,0.97   c0.57,0.3,1.21-0.11,1.2-0.74C222.79,43.3,222.68,43.08,222.47,42.92z"></path>
	<path class="st4" d="M191.15,17.14c0.27,0.47,0.72,0.61,1.13,0.39c0.43-0.23,0.56-0.73,0.28-1.22c-1.36-2.42-2.73-4.84-4.09-7.26   c-0.17-0.3-0.4-0.44-0.66-0.46c-0.74,0-1.08,0.68-0.71,1.34C188.43,12.33,189.79,14.74,191.15,17.14z"></path>
	<path class="st4" d="M209.7,45.36c-0.3-0.53-0.76-0.71-1.19-0.46c-0.43,0.25-0.53,0.75-0.23,1.28c0.85,1.53,1.72,3.05,2.57,4.57   c0.49,0.86,0.97,1.73,1.46,2.59c0.22,0.39,0.54,0.58,0.98,0.46c0.39-0.11,0.56-0.41,0.59-0.76c0-0.3-0.14-0.5-0.25-0.7   C212.32,50.01,211.01,47.68,209.7,45.36z"></path>
	<path class="st4" d="M214.44,23.32c0.26-0.02,0.47-0.15,0.69-0.27c2.25-1.33,4.5-2.67,6.75-4c0.54-0.32,0.72-0.81,0.46-1.26   c-0.24-0.42-0.72-0.5-1.26-0.19c-1.55,0.91-3.1,1.82-4.64,2.74c-0.8,0.47-1.59,0.94-2.39,1.41c-0.38,0.23-0.47,0.58-0.37,0.99   C213.78,23.12,214.08,23.27,214.44,23.32z"></path>
	<path class="st4" d="M192.88,45.25c-0.43-0.23-0.89-0.05-1.19,0.47c-0.68,1.19-1.35,2.39-2.02,3.58c-0.66,1.18-1.34,2.35-1.98,3.54   c-0.37,0.67-0.05,1.33,0.63,1.35c0.36,0.01,0.59-0.18,0.76-0.49c1.34-2.39,2.69-4.77,4.03-7.17C193.4,46,193.3,45.48,192.88,45.25z   "></path>
	<path class="st4" d="M200.75,47.23c-0.46,0-0.81,0.32-0.81,0.82c0,2.95,0.01,5.9,0.01,8.85c-0.01,0.16,0.04,0.28,0.2,0.32   c0.79,0.37,1.38,0.12,1.39-0.64c0.01-2.84,0.01-5.68,0-8.52C201.54,47.55,201.21,47.23,200.75,47.23z"></path>
	<path class="st4" d="M224.96,30.02c-2.66,0-5.31,0-7.97,0c-0.62,0-0.97,0.3-0.98,0.82c-0.01,0.53,0.32,0.83,0.95,0.84   c1.33,0.01,2.66,0,3.99,0c0,0,0,0,0,0c1.35,0,2.69,0,4.04,0c0.63,0,0.96-0.29,0.95-0.83C225.93,30.32,225.59,30.02,224.96,30.02z"></path>
	<path class="st4" d="M200.32,15.14c0.43-0.16,0.56-0.51,0.56-0.95c0-1.37,0-2.73,0-4.1c0-1.38,0.01-2.77,0-4.15   c0-0.58-0.34-0.94-0.82-0.94c-0.47,0-0.8,0.34-0.8,0.89c-0.01,2.8-0.01,5.61,0,8.41C199.26,14.96,199.76,15.35,200.32,15.14z"></path>
	<path class="st4" d="M183.73,32.4c0.68,0,1.07-0.31,1.07-0.85c0-0.5-0.39-0.81-1.04-0.82c-2.6-0.01-5.21-0.01-7.81-0.01   c-0.14,0-0.28,0-0.42,0.03c-0.42,0.08-0.65,0.35-0.65,0.79c-0.01,0.54,0.32,0.85,0.94,0.85c1.33,0.01,2.66,0,3.99,0   C181.11,32.4,182.42,32.4,183.73,32.4z"></path>
</g>
<text transform="matrix(0.9749 0 0 1 166.0479 109.8438)" class="st6 st7 st8">Coletor</text>
</svg>